<svg width="33" height="32" viewBox="0 0 33 32" fill="none" xmlns="http://www.w3.org/2000/svg">
<path d="M16.3334 8.5C16.3334 12.6421 12.9755 16 8.83337 16H1.33337V8.5C1.33337 4.35786 4.69123 1 8.83337 1C12.9755 1 16.3334 4.35786 16.3334 8.5Z" fill="#2F69FE"/>
<path d="M16.3334 23.5C16.3334 19.3579 19.6912 16 23.8334 16H31.3334V23.5C31.3334 27.6421 27.9755 31 23.8334 31C19.6912 31 16.3334 27.6421 16.3334 23.5Z" fill="#2F69FE"/>
<path d="M1.33337 23.5C1.33337 27.6421 4.69123 31 8.83337 31H16.3334V23.5C16.3334 19.3579 12.9755 16 8.83337 16C4.69123 16 1.33337 19.3579 1.33337 23.5Z" fill="#2451C4"/>
<path d="M31.3334 8.5C31.3334 4.35786 27.9755 1 23.8334 1H16.3334V8.5C16.3334 12.6421 19.6912 16 23.8334 16C27.9755 16 31.3334 12.6421 31.3334 8.5Z" fill="#2451C4"/>
</svg>
