<svg width="680" height="900" viewBox="0 0 680 900" fill="#FFFFFF" xmlns="http://www.w3.org/2000/svg">
<path d="M-802 -754V1593H1545V-754H-802ZM1542.34 -688.883H1484.84V-751.341H1542.34V-688.883ZM340.128 417.955H282.63V355.713H340.128V417.955ZM342.787 355.497H400.285V417.955H342.787V355.497ZM340.128 420.614V483.071H282.63V420.614H340.128ZM342.787 420.614H400.285V483.071H342.787V420.614ZM402.872 420.614H460.37V483.071H402.872V420.614ZM402.872 417.955V355.713H460.37V418.17L402.872 417.955ZM462.958 355.713H520.456V418.17H462.958V355.713ZM462.958 353.054V290.597H520.456V352.838L462.958 353.054ZM460.227 353.054H402.729V290.597H460.227V353.054ZM400.141 353.054H342.643V290.597H400.141V353.054ZM340.056 353.054H282.558V290.597H340.056V353.054ZM279.898 353.054H222.4V290.597H279.898V353.054ZM279.898 355.713V418.17H222.4V355.713H279.898ZM219.813 418.17H162.315V355.713H219.813V418.17ZM219.813 420.83V483.287H162.315V420.83H219.813ZM222.472 420.83H279.97V483.287H222.472V420.83ZM279.97 485.946V548.404H222.472V485.946H279.97ZM282.701 485.946H340.199V548.404H282.701V485.946ZM342.787 485.946H400.285V548.404H342.787V485.946ZM402.872 485.946H460.37V548.404H402.872V485.946ZM463.03 485.946H520.528V548.404H463.03V485.946ZM463.03 483.287V420.83H520.528V483.287H463.03ZM523.115 420.83H580.613V483.287H523.115V420.83ZM523.115 418.17V355.713H580.613V418.17H523.115ZM523.115 353.054V290.597H580.613V352.838L523.115 353.054ZM523.115 287.937V225.48H580.613V288.153L523.115 287.937ZM520.456 287.937H462.958V225.48H520.456V287.937ZM460.299 287.937H402.801V225.48H460.299V287.937ZM400.213 287.937H342.715V225.48H400.213V287.937ZM340.128 287.937H282.63V225.48H340.128V287.937ZM279.97 287.937H222.472V225.48H279.97V287.937ZM219.885 287.937H162.387V225.48H219.885V287.937ZM219.885 290.597V352.838H162.387V290.381L219.885 290.597ZM159.799 352.838H102.301V290.381H159.799V352.838ZM159.799 355.497V417.955H102.301V355.713L159.799 355.497ZM159.799 420.614V483.071H102.301V420.614H159.799ZM159.799 485.731V548.188H102.301V485.731H159.799ZM162.459 485.731H219.957V548.188H162.459V485.731ZM219.957 550.847V613.305H162.459V550.847H219.957ZM222.616 550.847H280.114V613.305H222.616V550.847ZM282.773 550.847H340.271V613.305H282.773V550.847ZM342.859 550.847H400.357V613.305H342.859V550.847ZM402.944 550.847H460.442V613.305H402.944V550.847ZM463.102 550.847H520.6V613.305H463.102V550.847ZM523.187 550.847H580.685V613.305H523.187V550.847ZM523.187 548.188V485.731H580.685V548.188H523.187ZM583.273 485.731H640.771V548.188H583.273V485.731ZM583.273 483.071V420.614H640.771V483.071H583.273ZM583.273 417.955V355.713H640.771V418.17L583.273 417.955ZM583.273 352.838V290.381H640.771V352.838H583.273ZM583.273 287.722V225.264H640.771V288.153L583.273 287.722ZM583.273 222.605V160.148H640.771V222.605H583.273ZM580.613 222.605H523.115V160.148H580.613V222.605ZM520.528 222.605H463.03V160.148H520.528V222.605ZM460.37 222.605H402.872V160.148H460.37V222.605ZM400.285 222.605H342.787V160.148H400.285V222.605ZM340.199 222.605H282.701V160.148H340.199V222.605ZM280.042 222.605H222.544V160.148H280.042V222.605ZM219.957 222.605H162.459V160.148H219.957V222.605ZM159.871 222.605H102.373V160.148H159.871V222.605ZM159.871 225.264V288.153H102.373V225.696L159.871 225.264ZM99.6419 288.153H42.1438V225.696H99.6419V288.153ZM99.6419 290.812V352.838H42.1438V290.381L99.6419 290.812ZM99.6419 355.929V418.386H42.1438V355.713L99.6419 355.929ZM99.6419 421.045V483.503H42.1438V421.045H99.6419ZM99.6419 486.162V548.619H42.1438V486.162H99.6419ZM99.6419 551.278V613.736H42.1438V551.278H99.6419ZM102.373 551.278H159.871V613.736H102.373V551.278ZM159.871 616.395V678.852H102.373V616.395H159.871ZM162.53 616.395H220.029V678.852H162.53V616.395ZM222.616 616.395H280.114V678.852H222.616V616.395ZM282.773 616.395H340.271V678.852H282.773V616.395ZM342.859 616.395H400.357V678.852H342.859V616.395ZM402.944 616.395H460.442V678.852H402.944V616.395ZM463.102 616.395H520.6V678.852H463.102V616.395ZM523.187 616.395H580.685V678.852H523.187V616.395ZM583.273 616.395H640.771V678.852H583.273V616.395ZM583.273 613.736V551.278H640.771V613.736H583.273ZM643.43 551.278H700.928V613.736H643.43V551.278ZM643.43 548.619V486.162H700.928V548.619H643.43ZM643.43 483.503V421.045H700.928V483.503H643.43ZM643.43 418.386V355.713H700.928V418.17L643.43 418.386ZM643.43 353.269V290.812H700.928V352.838L643.43 353.269ZM643.43 288.153V225.696H700.928V288.153H643.43ZM643.43 223.036V160.579H700.928V223.036H643.43ZM643.43 157.92V95.4624H700.928V157.92H643.43ZM640.699 157.92H583.201V95.4624H640.699V157.92ZM580.613 157.92H523.115V95.4624H580.613V157.92ZM520.528 157.92H463.03V95.4624H520.528V157.92ZM460.37 157.92H402.872V95.4624H460.37V157.92ZM400.285 157.92H342.787V95.4624H400.285V157.92ZM340.199 157.92H282.701V95.4624H340.199V157.92ZM280.042 157.92H222.544V95.4624H280.042V157.92ZM219.957 157.92H162.459V95.4624H219.957V157.92ZM159.871 157.92H102.373V95.4624H159.871V157.92ZM99.7137 157.92H42.2157V95.4624H99.7137V157.92ZM99.7137 160.579V223.036H42.2157V160.579H99.7137ZM39.6282 223.036H-17.8698V160.579H39.6282V223.036ZM39.6282 225.696V288.153H-17.8698V225.696H39.6282ZM39.6282 290.812V352.838H-17.8698V290.381L39.6282 290.812ZM39.6282 355.929V418.386H-17.8698V355.713L39.6282 355.929ZM39.6282 421.045V483.503H-17.8698V421.045H39.6282ZM39.6282 486.162V548.619H-17.8698V486.162H39.6282ZM39.6282 551.278V613.736H-17.8698V551.278H39.6282ZM39.6282 616.395V678.852H-17.8698V616.395H39.6282ZM42.2876 616.395H99.7856V678.852H42.2876V616.395ZM99.7856 681.512V743.969H42.2876V681.296L99.7856 681.512ZM102.517 681.512H160.015V743.969H102.517V681.512ZM162.602 681.512H220.1V743.969H162.602V681.512ZM222.688 681.512H280.186V743.969H222.688V681.512ZM282.845 681.512H340.343V743.969H282.845V681.512ZM342.931 681.512H400.429V743.969H342.931V681.512ZM403.016 681.512H460.514V743.969H403.016V681.512ZM463.174 681.512H520.672V743.969H463.174V681.512ZM523.259 681.512H580.757V743.969H523.259V681.512ZM583.345 681.512H640.843V743.969H583.345V681.512ZM643.502 681.512H701V743.969H643.502V681.512ZM643.502 678.852V616.395H701V678.852H643.502ZM703.587 616.395H761.086V678.852H703.587V616.395ZM703.587 613.736V551.278H761.086V613.736H703.587ZM703.587 548.619V486.162H761.086V548.619H703.587ZM703.587 483.503V421.045H761.086V483.503H703.587ZM703.587 418.386V355.713H761.086V418.17L703.587 418.386ZM703.587 353.269V290.812H761.086V352.838L703.587 353.269ZM703.587 288.153V225.696H761.086V288.153H703.587ZM703.587 223.036V160.579H761.086V223.036H703.587ZM703.587 157.92V95.4624H761.086V157.92H703.587ZM703.587 92.8031V30.1302H761.086V92.5875L703.587 92.8031ZM700.928 92.8031H643.43V30.1302H700.928V92.8031ZM640.771 92.8031H583.273V30.1302H640.771V92.8031ZM580.685 92.8031H523.187V30.1302H580.685V92.8031ZM520.6 92.8031H463.102V30.1302H520.6V92.8031ZM460.442 92.8031H402.944V30.1302H460.442V92.8031ZM400.357 92.8031H342.859V30.1302H400.357V92.8031ZM340.271 92.8031H282.773V30.1302H340.271V92.8031ZM280.114 92.8031H222.616V30.1302H280.114V92.8031ZM220.029 92.8031H162.53V30.1302H220.029V92.8031ZM159.943 92.8031H102.445V30.1302H159.943V92.8031ZM99.7856 92.8031H42.2876V30.1302H99.7856V92.8031ZM39.7001 92.8031H-17.7979V30.1302H39.7001V92.8031ZM39.7001 95.4624V157.92H-17.7979V95.4624H39.7001ZM-20.3854 157.92H-77.8834V95.4624H-20.3854V157.92ZM-20.3854 160.579V223.036H-77.8834V160.579H-20.3854ZM-20.3854 225.696V288.153H-77.8834V225.696H-20.3854ZM-20.3854 290.812V352.838H-77.8834V290.381L-20.3854 290.812ZM-20.3854 355.929V418.386H-77.8834V355.713L-20.3854 355.929ZM-20.3854 421.045V483.503H-77.8834V421.045H-20.3854ZM-20.3854 486.162V548.619H-77.8834V486.162H-20.3854ZM-20.3854 551.278V613.736H-77.8834V551.278H-20.3854ZM-20.3854 616.395V678.852H-77.8834V616.395H-20.3854ZM-20.3854 681.512V743.969H-77.8834V681.296L-20.3854 681.512ZM-17.7261 681.512H39.772V743.969H-17.7261V681.512ZM39.772 746.628V809.086H-17.7261V746.628H39.772ZM42.4313 746.628H99.9294V809.086H42.4313V746.628ZM102.589 746.628H160.087V809.086H102.589V746.628ZM162.674 746.628H220.172V809.086H162.674V746.628ZM222.76 746.628H280.258V809.086H222.76V746.628ZM282.917 746.628H340.415V809.086H282.917V746.628ZM343.003 746.628H400.501V809.086H343.003V746.628ZM403.088 746.628H460.586V809.086H403.088V746.628ZM463.245 746.628H520.744V809.086H463.245V746.628ZM523.331 746.628H580.829V809.086H523.331V746.628ZM583.416 746.628H640.915V809.086H583.416V746.628ZM643.574 746.628H701.072V809.086H643.574V746.628ZM703.659 746.628H761.157V809.086H703.659V746.628ZM703.659 743.969V681.296H761.157V743.753L703.659 743.969ZM763.745 681.512H821.243V743.969H763.745V681.512ZM763.745 678.852V616.395H821.243V678.852H763.745ZM763.745 613.736V551.278H821.243V613.736H763.745ZM763.745 548.619V486.162H821.243V548.619H763.745ZM763.745 483.503V421.045H821.243V483.503H763.745ZM763.745 418.386V355.713H821.243V418.17L763.745 418.386ZM763.745 353.269V290.812H821.243V352.838L763.745 353.269ZM763.745 288.153V225.696H821.243V288.153H763.745ZM763.745 223.036V160.579H821.243V223.036H763.745ZM763.745 157.92V95.4624H821.243V157.92H763.745ZM763.745 92.8031V30.1302H821.243V92.5875L763.745 92.8031ZM763.745 27.6865V-35.2739H821.243V27.1834L763.745 27.6865ZM761.086 27.6865H703.587V-35.2739H761.086V27.6865ZM701 27.6865H643.502V-35.2739H701V27.6865ZM640.843 27.6865H583.345V-35.2739H640.843V27.6865ZM580.757 27.6865H523.259V-35.2739H580.757V27.6865ZM520.672 27.6865H463.174V-35.2739H520.672V27.6865ZM460.514 27.6865H403.016V-35.2739H460.514V27.6865ZM400.429 27.6865H342.931V-35.2739H400.429V27.6865ZM340.343 27.6865H282.845V-35.2739H340.343V27.6865ZM280.186 27.6865H222.688V-35.2739H280.186V27.6865ZM220.1 27.6865H162.602V-35.2739H220.1V27.6865ZM160.015 27.6865H102.517V-35.2739H160.015V27.6865ZM99.8575 27.6865H42.3594V-35.2739H99.8575V27.6865ZM39.772 27.6865H-17.7261V-35.2739H39.772V27.6865ZM-20.3135 27.6865H-77.8116V-35.2739H-20.3135V27.6865ZM-20.3135 30.3458V92.8031H-77.8116V30.1302L-20.3135 30.3458ZM-80.4709 92.8031H-137.969V30.1302H-80.4709V92.8031ZM-80.4709 95.4624V157.92H-137.969V95.4624H-80.4709ZM-80.4709 160.579V223.036H-137.969V160.579H-80.4709ZM-80.4709 225.696V288.153H-137.969V225.696H-80.4709ZM-80.4709 290.812V352.838H-137.969V290.381L-80.4709 290.812ZM-80.4709 355.929V418.386H-137.969V355.713L-80.4709 355.929ZM-80.4709 421.045V483.503H-137.969V421.045H-80.4709ZM-80.4709 486.162V548.619H-137.969V486.162H-80.4709ZM-80.4709 551.278V613.736H-137.969V551.278H-80.4709ZM-80.4709 616.395V678.852H-137.969V616.395H-80.4709ZM-80.4709 681.512V743.969H-137.969V681.296L-80.4709 681.512ZM-80.4709 746.628V809.086H-137.969V746.628H-80.4709ZM-77.7397 746.628H-20.2416V809.086H-77.7397V746.628ZM-20.2416 811.817V874.202H-77.7397V811.817H-20.2416ZM-17.5823 811.817H39.9158V874.202H-17.5823V811.817ZM42.5032 811.817H100.001V874.202H42.5032V811.817ZM102.661 811.817H160.159V874.202H102.661V811.817ZM162.746 811.817H220.244V874.202H162.746V811.817ZM222.832 811.817H280.33V874.202H222.832V811.817ZM282.989 811.817H340.487V874.202H282.989V811.817ZM343.074 811.817H400.573V874.202H343.074V811.817ZM403.16 811.817H460.658V874.202H403.16V811.817ZM463.317 811.817H520.815V874.202H463.317V811.817ZM523.403 811.817H580.901V874.202H523.403V811.817ZM583.488 811.817H640.986V874.202H583.488V811.817ZM643.646 811.817H701.144V874.202H643.646V811.817ZM703.731 811.817H761.229V874.202H703.731V811.817ZM763.817 811.817H821.315V874.202H763.817V811.817ZM763.817 809.086V746.628H821.315V809.086H763.817ZM823.974 746.628H881.472V809.086H823.974V746.628ZM823.974 743.969V681.296H881.472V743.753L823.974 743.969ZM823.974 678.852V616.395H881.472V678.852H823.974ZM823.974 613.736V551.278H881.472V613.736H823.974ZM823.974 548.619V486.162H881.472V548.619H823.974ZM823.974 483.503V421.045H881.472V483.503H823.974ZM823.974 418.386V355.713H881.472V418.17L823.974 418.386ZM823.974 353.269V290.812H881.472V352.838L823.974 353.269ZM823.974 288.153V225.696H881.472V288.153H823.974ZM823.974 223.036V160.579H881.472V223.036H823.974ZM823.974 157.92V95.4624H881.472V157.92H823.974ZM823.974 92.8031V30.1302H881.472V92.5875L823.974 92.8031ZM823.974 27.6865V-35.2739H881.472V27.1834L823.974 27.6865ZM823.974 -37.4301V-99.9592H881.472V-37.502L823.974 -37.4301ZM821.315 -37.4301H763.817V-99.9592H821.315V-37.4301ZM761.157 -37.4301H703.659V-99.9592H761.157V-37.4301ZM701.072 -37.4301H643.574V-99.9592H701.072V-37.4301ZM640.915 -37.4301H583.416V-99.9592H640.915V-37.4301ZM580.829 -37.4301H523.331V-99.9592H580.829V-37.4301ZM520.744 -37.4301H463.245V-99.9592H520.744V-37.4301ZM460.586 -37.4301H403.088V-99.9592H460.586V-37.4301ZM400.501 -37.4301H343.003V-99.9592H400.501V-37.4301ZM340.415 -37.4301H282.917V-99.9592H340.415V-37.4301ZM280.258 -37.4301H222.76V-99.9592H280.258V-37.4301ZM220.172 -37.4301H162.674V-99.9592H220.172V-37.4301ZM160.087 -37.4301H102.589V-99.9592H160.087V-37.4301ZM99.9294 -37.4301H42.4313V-99.9592H99.9294V-37.4301ZM39.8439 -37.4301H-17.6542V-99.9592H39.8439V-37.4301ZM-20.2416 -37.4301H-77.7397V-99.9592H-20.2416V-37.4301ZM-80.399 -37.4301H-137.897V-99.9592H-80.399V-37.4301ZM-80.399 -34.7708V27.6865H-137.897V-35.2739L-80.399 -34.7708ZM-140.772 27.4709H-198.27V-35.2739H-140.772V27.4709ZM-140.772 30.1302V92.5875H-198.27V30.1302H-140.772ZM-140.772 95.2468V157.704H-198.27V95.2468H-140.772ZM-140.772 160.363V222.821H-198.27V160.363H-140.772ZM-140.772 225.48V288.153H-198.27V225.696L-140.772 225.48ZM-140.772 290.597V352.838H-198.27V290.381L-140.772 290.597ZM-140.772 355.713V418.17H-198.27V355.713H-140.772ZM-140.772 420.83V483.287H-198.27V420.83H-140.772ZM-140.772 485.946V548.404H-198.27V485.946H-140.772ZM-140.772 551.063V613.52H-198.27V551.063H-140.772ZM-140.772 616.179V678.637H-198.27V616.179H-140.772ZM-140.772 681.296V743.753H-198.27V681.296H-140.772ZM-140.772 746.413V808.87H-198.27V746.413H-140.772ZM-140.772 811.601V873.986H-198.27V811.601H-140.772ZM-138.113 811.601H-80.6146V873.986H-138.113V811.601ZM-80.6146 876.718V939.103H-138.113V876.718H-80.6146ZM-77.8834 876.718H-20.3854V939.103H-77.8834V876.718ZM-17.7979 876.718H39.7001V939.103H-17.7979V876.718ZM42.2876 876.718H99.7856V939.103H42.2876V876.718ZM102.445 876.718H159.943V939.103H102.445V876.718ZM162.53 876.718H220.029V939.103H162.53V876.718ZM222.616 876.718H280.114V939.103H222.616V876.718ZM282.773 876.718H340.271V939.103H282.773V876.718ZM342.859 876.718H400.357V939.103H342.859V876.718ZM402.944 876.718H460.442V939.103H402.944V876.718ZM463.102 876.718H520.6V939.103H463.102V876.718ZM523.187 876.718H580.685V939.103H523.187V876.718ZM583.273 876.718H640.771V939.103H583.273V876.718ZM643.43 876.718H700.928V939.103H643.43V876.718ZM703.516 876.718H761.014V939.103H703.516V876.718ZM763.601 876.718H821.099V939.103H763.601V876.718ZM823.758 876.718H881.256V939.103H823.758V876.718ZM823.758 873.986V811.601H881.256V873.986H823.758ZM883.844 811.601H941.342V873.986H883.844V811.601ZM883.844 808.87V746.413H941.342V808.87H883.844ZM883.844 743.753V681.296H941.342V743.753H883.844ZM883.844 678.637V616.179H941.342V678.637H883.844ZM883.844 613.52V551.063H941.342V613.52H883.844ZM883.844 548.404V485.946H941.342V548.404H883.844ZM883.844 483.287V420.83H941.342V483.287H883.844ZM883.844 418.17V355.713H941.342V418.17H883.844ZM883.844 353.054V290.597H941.342V352.838L883.844 353.054ZM883.844 287.937V225.48H941.342V288.153L883.844 287.937ZM883.844 222.821V160.363H941.342V222.821H883.844ZM883.844 157.704V95.2468H941.342V157.704H883.844ZM883.844 92.5875V30.1302H941.342V92.5875H883.844ZM883.844 27.4709V-35.2739H941.342V27.1834L883.844 27.4709ZM883.844 -37.6457V-99.9592H941.342V-37.502L883.844 -37.6457ZM883.844 -102.834V-165.22H941.342V-102.834H883.844ZM881.185 -102.834H823.687V-165.22H881.185V-102.834ZM821.099 -102.834H763.601V-165.22H821.099V-102.834ZM760.942 -102.834H703.444V-165.22H760.942V-102.834ZM700.856 -102.834H643.358V-165.22H700.856V-102.834ZM640.699 -102.834H583.201V-165.22H640.699V-102.834ZM580.613 -102.834H523.115V-165.22H580.613V-102.834ZM520.528 -102.834H463.03V-165.22H520.528V-102.834ZM460.37 -102.834H402.872V-165.22H460.37V-102.834ZM400.285 -102.834H342.787V-165.22H400.285V-102.834ZM340.199 -102.834H282.701V-165.22H340.199V-102.834ZM280.042 -102.834H222.544V-165.22H280.042V-102.834ZM219.957 -102.834H162.459V-165.22H219.957V-102.834ZM159.871 -102.834H102.373V-165.22H159.871V-102.834ZM99.7137 -102.834H42.2157V-165.22H99.7137V-102.834ZM39.6282 -102.834H-17.8698V-165.22H39.6282V-102.834ZM-20.4572 -102.834H-77.9553V-165.22H-20.4572V-102.834ZM-80.6146 -102.834H-138.113V-165.22H-80.6146V-102.834ZM-140.772 -102.834H-198.27V-165.22H-140.772V-102.834ZM-140.772 -99.9592V-37.502H-198.27V-99.9592H-140.772ZM-200.857 -37.502H-258.356V-99.9592H-200.857V-37.502ZM-200.857 -34.8427V27.6146H-258.356V-35.2739L-200.857 -34.8427ZM-200.857 30.2739V92.7312H-258.356V30.1302L-200.857 30.2739ZM-200.857 95.3905V157.848H-258.356V95.3905H-200.857ZM-200.857 160.507V222.964H-258.356V160.507H-200.857ZM-200.857 225.624V288.153H-258.356V225.696L-200.857 225.624ZM-200.857 290.74V352.838H-258.356V290.381L-200.857 290.74ZM-200.857 355.857V418.314H-258.356V355.713L-200.857 355.857ZM-200.857 420.973V483.431H-258.356V420.973H-200.857ZM-200.857 486.09V548.547H-258.356V486.09H-200.857ZM-200.857 551.207V613.664H-258.356V551.207H-200.857ZM-200.857 616.323V678.781H-258.356V616.323H-200.857ZM-200.857 681.44V743.897H-258.356V681.296L-200.857 681.44ZM-200.857 746.556V809.014H-258.356V746.556H-200.857ZM-200.857 811.745V874.13H-258.356V811.745H-200.857ZM-200.857 876.861V939.247H-258.356V876.861H-200.857ZM-198.198 876.861H-140.7V939.247H-198.27L-198.198 876.861ZM-140.772 942.194V1004.58H-198.27V942.194H-140.772ZM-138.113 942.194H-80.6146V1004.58H-138.113V942.194ZM-77.9553 942.194H-20.4572V1004.58H-77.9553V942.194ZM-17.8698 942.194H39.6282V1004.58H-17.8698V942.194ZM42.2157 942.194H99.7137V1004.58H42.2157V942.194ZM102.373 942.194H159.871V1004.58H102.373V942.194ZM162.459 942.194H219.957V1004.58H162.459V942.194ZM222.544 942.194H280.042V1004.58H222.544V942.194ZM282.701 942.194H340.199V1004.58H282.701V942.194ZM342.787 942.194H400.285V1004.58H342.787V942.194ZM402.872 942.194H460.37V1004.58H402.872V942.194ZM463.03 942.194H520.528V1004.58H463.03V942.194ZM523.115 942.194H580.613V1004.58H523.115V942.194ZM583.201 942.194H640.699V1004.58H583.201V942.194ZM643.358 942.194H700.856V1004.58H643.358V942.194ZM703.444 942.194H760.942V1004.58H703.444V942.194ZM763.529 942.194H821.027V1004.58H763.529V942.194ZM823.687 942.194H881.185V1004.58H823.687V942.194ZM883.772 942.194H941.27V1004.58H883.772V942.194ZM883.772 939.462V877.077H941.27V939.462H883.772ZM943.929 877.077H1001.43V939.462H943.929V877.077ZM943.929 874.346V811.96H1001.43V874.346H943.929ZM943.929 809.229V746.772H1001.43V809.229H943.929ZM943.929 744.113V681.296H1001.43V743.753L943.929 744.113ZM943.929 678.996V616.539H1001.43V678.996H943.929ZM943.929 613.88V551.422H1001.43V613.88H943.929ZM943.929 548.763V486.306H1001.43V548.763H943.929ZM943.929 483.646V421.189H1001.43V483.646H943.929ZM943.929 418.53V355.713H1001.43V418.17L943.929 418.53ZM943.929 353.413V290.956H1001.43V352.838L943.929 353.413ZM943.929 288.297V225.839H1001.43V288.153L943.929 288.297ZM943.929 223.18V160.723H1001.43V223.18H943.929ZM943.929 158.063V95.6061H1001.43V158.063H943.929ZM943.929 92.9468V30.1302H1001.43V92.5875L943.929 92.9468ZM943.929 27.8303V-35.2739H1001.43V27.1834L943.929 27.8303ZM943.929 -37.2863V-99.9592H1001.43V-37.502L943.929 -37.2863ZM943.929 -102.475V-165.22H1001.43V-102.834L943.929 -102.475ZM943.929 -167.591V-230.336H1001.43V-167.951L943.929 -167.591ZM941.198 -167.591H883.7V-230.336H941.198V-167.591ZM881.113 -167.591H823.615V-230.336H881.113V-167.591ZM821.027 -167.591H763.529V-230.336H821.027V-167.591ZM760.87 -167.591H703.372V-230.336H760.87V-167.591ZM700.784 -167.591H643.286V-230.336H700.784V-167.591ZM640.627 -167.591H583.129V-230.336H640.627V-167.591ZM580.542 -167.591H523.043V-230.336H580.542V-167.591ZM520.456 -167.591H462.958V-230.336H520.456V-167.591ZM460.299 -167.591H402.801V-230.336H460.299V-167.591ZM400.213 -167.591H342.715V-230.336H400.213V-167.591ZM340.128 -167.591H282.63V-230.336H340.128V-167.591ZM279.97 -167.591H222.472V-230.336H279.97V-167.591ZM219.885 -167.591H162.387V-230.336H219.885V-167.591ZM159.799 -167.591H102.301V-230.336H159.799V-167.591ZM99.6419 -167.591H42.1438V-230.336H99.6419V-167.591ZM39.5564 -167.591H-17.9417V-230.336H39.5564V-167.591ZM-20.5291 -167.591H-78.0272V-230.336H-20.5291V-167.591ZM-80.6865 -167.591H-138.185V-230.336H-80.6865V-167.591ZM-140.772 -167.591H-198.27V-230.336H-140.772V-167.591ZM-200.857 -167.591H-258.356V-230.336H-200.857V-167.591ZM-200.857 -164.86V-102.834H-258.356V-165.22L-200.857 -164.86ZM-261.015 -102.834H-318.513V-165.22H-261.015V-102.834ZM-261.015 -100.103V-37.6457H-318.513V-99.9592L-261.015 -100.103ZM-261.015 -34.9864V27.4709H-318.513V-35.2739L-261.015 -34.9864ZM-261.015 30.1302V92.5875H-318.513V30.1302H-261.015ZM-261.015 95.2468V157.704H-318.513V95.2468H-261.015ZM-261.015 160.363V222.821H-318.513V160.363H-261.015ZM-261.015 225.48V288.153H-318.513V225.696L-261.015 225.48ZM-261.015 290.597V352.838H-318.513V290.381L-261.015 290.597ZM-261.015 355.713V418.17H-318.513V355.713H-261.015ZM-261.015 420.83V483.287H-318.513V420.83H-261.015ZM-261.015 485.946V548.404H-318.513V485.946H-261.015ZM-261.015 551.063V613.52H-318.513V551.063H-261.015ZM-261.015 616.179V678.637H-318.513V616.179H-261.015ZM-261.015 681.296V743.753H-318.513V681.296H-261.015ZM-261.015 746.413V808.87H-318.513V746.413H-261.015ZM-261.015 811.601V873.986H-318.513V811.601H-261.015ZM-261.015 876.718V939.103H-318.513V876.718H-261.015ZM-261.015 941.834V1004.22H-318.513V942.194L-261.015 941.834ZM-258.356 941.834H-200.857V1004.22H-258.356V941.834ZM-200.857 1006.95V1069.34H-258.356V1006.88L-200.857 1006.95ZM-198.198 1006.95H-140.7V1069.34H-198.27L-198.198 1006.95ZM-138.113 1006.95H-80.6146V1069.34H-138.113V1006.95ZM-77.9553 1006.95H-20.4572V1069.34H-77.9553V1006.95ZM-17.8698 1006.95H39.6282V1069.34H-17.8698V1006.95ZM42.2157 1006.95H99.7137V1069.34H42.2157V1006.95ZM102.373 1006.95H159.871V1069.34H102.373V1006.95ZM162.459 1006.95H219.957V1069.34H162.459V1006.95ZM222.544 1006.95H280.042V1069.34H222.544V1006.95ZM282.701 1006.95H340.199V1069.34H282.701V1006.95ZM342.787 1006.95H400.285V1069.34H342.787V1006.95ZM402.872 1006.95H460.37V1069.34H402.872V1006.95ZM463.03 1006.95H520.528V1069.34H463.03V1006.95ZM523.115 1006.95H580.613V1069.34H523.115V1006.95ZM583.201 1006.95H640.699V1069.34H583.201V1006.95ZM643.358 1006.95H700.856V1069.34H643.358V1006.95ZM703.444 1006.95H760.942V1069.34H703.444V1006.95ZM763.529 1006.95H821.027V1069.34H763.529V1006.95ZM823.687 1006.95H881.185V1069.34H823.687V1006.95ZM883.772 1006.95H941.27V1069.34H883.772V1006.95ZM943.929 1006.95H1001.43V1069.34H943.929V1006.95ZM943.929 1004.22V942.194H1001.43V1004.58L943.929 1004.22ZM1004.02 941.834H1061.51V1004.22H1004.02V941.834ZM1004.02 939.103V876.718H1061.51V939.103H1004.02ZM1004.02 873.986V811.601H1061.51V873.986H1004.02ZM1004.02 808.87V746.413H1061.51V808.87H1004.02ZM1004.02 743.753V681.296H1061.51V743.753H1004.02ZM1004.02 678.637V616.179H1061.51V678.637H1004.02ZM1004.02 613.52V551.063H1061.51V613.52H1004.02ZM1004.02 548.404V485.946H1061.51V548.404H1004.02ZM1004.02 483.287V420.83H1061.51V483.287H1004.02ZM1004.02 418.17V355.713H1061.51V418.17H1004.02ZM1004.02 353.054V290.597H1061.51V352.838L1004.02 353.054ZM1004.02 287.937V225.48H1061.51V288.153L1004.02 287.937ZM1004.02 222.821V160.363H1061.51V222.821H1004.02ZM1004.02 157.704V95.2468H1061.51V157.704H1004.02ZM1004.02 92.5875V30.1302H1061.51V92.5875H1004.02ZM1004.02 27.4709V-35.2739H1061.51V27.1834L1004.02 27.4709ZM1004.02 -37.6457V-99.9592H1061.51V-37.502L1004.02 -37.6457ZM1004.02 -102.834V-165.22H1061.51V-102.834H1004.02ZM1004.02 -167.951V-230.336H1061.51V-167.951H1004.02ZM1004.02 -233.067V-295.453H1061.51V-233.067H1004.02ZM1001.36 -233.067H943.858V-295.453H1001.36V-233.067ZM941.198 -233.067H883.7V-295.453H941.198V-233.067ZM881.113 -233.067H823.615V-295.453H881.113V-233.067ZM821.027 -233.067H763.529V-295.453H821.027V-233.067ZM760.87 -233.067H703.372V-295.453H760.87V-233.067ZM700.784 -233.067H643.286V-295.453H700.784V-233.067ZM640.627 -233.067H583.129V-295.453H640.627V-233.067ZM580.542 -233.067H523.043V-295.453H580.542V-233.067ZM520.456 -233.067H462.958V-295.453H520.456V-233.067ZM460.299 -233.067H402.801V-295.453H460.299V-233.067ZM400.213 -233.067H342.715V-295.453H400.213V-233.067ZM340.128 -233.067H282.63V-295.453H340.128V-233.067ZM279.97 -233.067H222.472V-295.453H279.97V-233.067ZM219.885 -233.067H162.387V-295.453H219.885V-233.067ZM159.799 -233.067H102.301V-295.453H159.799V-233.067ZM99.6419 -233.067H42.1438V-295.453H99.6419V-233.067ZM39.5564 -233.067H-17.9417V-295.453H39.5564V-233.067ZM-20.5291 -233.067H-78.0272V-295.453H-20.5291V-233.067ZM-80.6865 -233.067H-138.185V-295.453H-80.6865V-233.067ZM-140.772 -233.067H-198.27V-295.453H-140.772V-233.067ZM-200.857 -233.067H-258.356V-295.453H-200.857V-233.067ZM-261.015 -233.067H-318.513V-295.453H-261.015V-233.067ZM-261.015 -230.336V-167.951H-318.513V-230.336H-261.015ZM-321.1 -167.951H-378.598V-230.336H-321.1V-167.951ZM-321.1 -165.22V-102.834H-378.598V-165.22H-321.1ZM-321.1 -100.103V-37.6457H-378.598V-99.9592L-321.1 -100.103ZM-321.1 -34.9864V27.4709H-378.598V-35.2739L-321.1 -34.9864ZM-321.1 30.1302V92.5875H-378.598V30.1302H-321.1ZM-321.1 95.2468V157.704H-378.598V95.2468H-321.1ZM-321.1 160.363V222.821H-378.598V160.363H-321.1ZM-321.1 225.48V288.153H-378.598V225.696L-321.1 225.48ZM-321.1 290.597V352.838H-378.598V290.381L-321.1 290.597ZM-321.1 355.713V418.17H-378.598V355.713H-321.1ZM-321.1 420.83V483.287H-378.598V420.83H-321.1ZM-321.1 485.946V548.404H-378.598V485.946H-321.1ZM-321.1 551.063V613.52H-378.598V551.063H-321.1ZM-321.1 616.179V678.637H-378.598V616.179H-321.1ZM-321.1 681.296V743.753H-378.598V681.296H-321.1ZM-321.1 746.413V808.87H-378.598V746.413H-321.1ZM-321.1 811.601V873.986H-378.598V811.601H-321.1ZM-321.1 876.718V939.103H-378.598V876.718H-321.1ZM-321.1 941.834V1004.22H-378.598V942.194L-321.1 941.834ZM-321.1 1006.95V1069.34H-378.598V1006.88L-321.1 1006.95ZM-318.441 1006.95H-260.943V1069.34H-318.441V1006.95ZM-260.943 1072.07V1134.45H-318.441V1072.07H-260.943ZM-258.284 1072.07H-200.786V1134.45H-258.284V1072.07ZM-198.126 1072.07H-140.628V1134.45H-198.27L-198.126 1072.07ZM-138.041 1072.07H-80.5427V1134.45H-138.041V1072.07ZM-77.8834 1072.07H-20.3854V1134.45H-77.8834V1072.07ZM-17.7979 1072.07H39.7001V1134.45H-17.7979V1072.07ZM42.2876 1072.07H99.7856V1134.45H42.2876V1072.07ZM102.445 1072.07H159.943V1134.45H102.445V1072.07ZM162.53 1072.07H220.029V1134.45H162.53V1072.07ZM222.616 1072.07H280.114V1134.45H222.616V1072.07ZM282.773 1072.07H340.271V1134.45H282.773V1072.07ZM342.859 1072.07H400.357V1134.45H342.859V1072.07ZM402.944 1072.07H460.442V1134.45H402.944V1072.07ZM463.102 1072.07H520.6V1134.45H463.102V1072.07ZM523.187 1072.07H580.685V1134.45H523.187V1072.07ZM583.273 1072.07H640.771V1134.45H583.273V1072.07ZM643.43 1072.07H700.928V1134.45H643.43V1072.07ZM703.516 1072.07H761.014V1134.45H703.516V1072.07ZM763.601 1072.07H821.099V1134.45H763.601V1072.07ZM823.758 1072.07H881.256V1134.45H823.758V1072.07ZM883.844 1072.07H941.342V1134.45H883.844V1072.07ZM944.001 1072.07H1001.5V1134.45H944.001V1072.07ZM1004.09 1072.07H1061.58V1134.45H1004.09V1072.07ZM1004.09 1069.34V1006.88H1061.58V1069.26L1004.09 1069.34ZM1064.17 1006.95H1121.67V1069.34H1064.17V1006.95ZM1064.17 1004.22V942.194H1121.67V1004.58L1064.17 1004.22ZM1064.17 939.103V876.718H1121.67V939.103H1064.17ZM1064.17 873.986V811.601H1121.67V873.986H1064.17ZM1064.17 808.87V746.413H1121.67V808.87H1064.17ZM1064.17 743.753V681.296H1121.67V743.753H1064.17ZM1064.17 678.637V616.179H1121.67V678.637H1064.17ZM1064.17 613.52V551.063H1121.67V613.52H1064.17ZM1064.17 548.404V485.946H1121.67V548.404H1064.17ZM1064.17 483.287V420.83H1121.67V483.287H1064.17ZM1064.17 418.17V355.713H1121.67V418.17H1064.17ZM1064.17 353.054V290.597H1121.67V352.838L1064.17 353.054ZM1064.17 287.937V225.48H1121.67V288.153L1064.17 287.937ZM1064.17 222.821V160.363H1121.67V222.821H1064.17ZM1064.17 157.704V95.2468H1121.67V157.704H1064.17ZM1064.17 92.5875V30.1302H1121.67V92.5875H1064.17ZM1064.17 27.4709V-35.2739H1121.67V27.1834L1064.17 27.4709ZM1064.17 -37.6457V-99.9592H1121.67V-37.502L1064.17 -37.6457ZM1064.17 -102.834V-165.22H1121.67V-102.834H1064.17ZM1064.17 -167.951V-230.336H1121.67V-167.951H1064.17ZM1064.17 -233.067V-295.453H1121.67V-233.067H1064.17ZM1064.17 -298.184V-360.569H1121.67V-298.184H1064.17ZM1061.51 -298.184H1004.02V-360.569H1061.51V-298.184ZM1001.43 -298.184H943.929V-360.569H1001.43V-298.184ZM941.27 -298.184H883.772V-360.569H941.27V-298.184ZM881.185 -298.184H823.687V-360.569H881.185V-298.184ZM821.099 -298.184H763.601V-360.569H821.099V-298.184ZM760.942 -298.184H703.444V-360.569H760.942V-298.184ZM700.856 -298.184H643.358V-360.569H700.856V-298.184ZM640.699 -298.184H583.201V-360.569H640.699V-298.184ZM580.613 -298.184H523.115V-360.569H580.613V-298.184ZM520.528 -298.184H463.03V-360.569H520.528V-298.184ZM460.37 -298.184H402.872V-360.569H460.37V-298.184ZM400.285 -298.184H342.787V-360.569H400.285V-298.184ZM340.199 -298.184H282.701V-360.569H340.199V-298.184ZM280.042 -298.184H222.544V-360.569H280.042V-298.184ZM219.957 -298.184H162.459V-360.569H219.957V-298.184ZM159.871 -298.184H102.373V-360.569H159.871V-298.184ZM99.7137 -298.184H42.2157V-360.569H99.7137V-298.184ZM39.6282 -298.184H-17.8698V-360.569H39.6282V-298.184ZM-20.4572 -298.184H-77.9553V-360.569H-20.4572V-298.184ZM-80.6146 -298.184H-138.113V-360.569H-80.6146V-298.184ZM-140.7 -298.184H-198.27V-360.569H-140.772L-140.7 -298.184ZM-200.786 -298.184H-258.284V-360.569H-200.786V-298.184ZM-260.943 -298.184H-318.441V-360.569H-260.943V-298.184ZM-321.029 -298.184H-378.527V-360.569H-321.029V-298.184ZM-321.029 -295.453V-233.067H-378.527V-295.453H-321.029ZM-381.186 -233.067H-438.684V-295.453H-381.186V-233.067ZM-381.186 -230.336V-167.951H-438.684V-230.336H-381.186ZM-381.186 -165.22V-102.834H-438.684V-165.22H-381.186ZM-381.186 -100.103V-37.6457H-438.684V-99.9592L-381.186 -100.103ZM-381.186 -34.9864V27.4709H-438.684V-35.2739L-381.186 -34.9864ZM-381.186 30.1302V92.5875H-438.684V30.1302H-381.186ZM-381.186 95.2468V157.704H-438.684V95.2468H-381.186ZM-381.186 160.363V222.821H-438.684V160.363H-381.186ZM-381.186 225.48V288.153H-438.684V225.696L-381.186 225.48ZM-381.186 290.597V352.838H-438.684V290.381L-381.186 290.597ZM-381.186 355.713V418.17H-438.684V355.713H-381.186ZM-381.186 420.83V483.287H-438.684V420.83H-381.186ZM-381.186 485.946V548.404H-438.684V485.946H-381.186ZM-381.186 551.063V613.52H-438.684V551.063H-381.186ZM-381.186 616.179V678.637H-438.684V616.179H-381.186ZM-381.186 681.296V743.753H-438.684V681.296H-381.186ZM-381.186 746.413V808.87H-438.684V746.413H-381.186ZM-381.186 811.601V873.986H-438.684V811.601H-381.186ZM-381.186 876.718V939.103H-438.684V876.718H-381.186ZM-381.186 941.834V1004.22H-438.684V942.194L-381.186 941.834ZM-381.186 1006.95V1069.34H-438.684V1006.88L-381.186 1006.95ZM-381.186 1072.07V1134.45H-438.684V1072.07H-381.186ZM-378.455 1072.07H-320.957V1134.45H-378.455V1072.07ZM-320.957 1137.18V1199.57H-378.455V1137.18H-320.957ZM-318.297 1137.18H-260.799V1199.57H-318.297V1137.18ZM-258.212 1137.18H-200.714V1199.57H-258.212V1137.18ZM-198.054 1137.18H-140.556V1199.57H-198.27L-198.054 1137.18ZM-137.969 1137.18H-80.4709V1199.57H-137.969V1137.18ZM-77.8116 1137.18H-20.3135V1199.57H-77.8116V1137.18ZM-17.7261 1137.18H39.772V1199.57H-17.7261V1137.18ZM42.3594 1137.18H99.8575V1199.57H42.3594V1137.18ZM102.517 1137.18H160.015V1199.57H102.517V1137.18ZM162.602 1137.18H220.1V1199.57H162.602V1137.18ZM222.688 1137.18H280.186V1199.57H222.688V1137.18ZM282.845 1137.18H340.343V1199.57H282.845V1137.18ZM342.931 1137.18H400.429V1199.57H342.931V1137.18ZM403.016 1137.18H460.514V1199.57H403.016V1137.18ZM463.174 1137.18H520.672V1199.57H463.174V1137.18ZM523.259 1137.18H580.757V1199.57H523.259V1137.18ZM583.345 1137.18H640.843V1199.57H583.345V1137.18ZM643.502 1137.18H701V1199.57H643.502V1137.18ZM703.587 1137.18H761.086V1199.57H703.587V1137.18ZM763.673 1137.18H821.171V1199.57H763.673V1137.18ZM823.83 1137.18H881.328V1199.57H823.83V1137.18ZM883.916 1137.18H941.414V1199.57H883.916V1137.18ZM944.073 1137.18H1001.57V1199.57H944.073V1137.18ZM1004.16 1137.18H1061.66V1199.57H1004.16V1137.18ZM1064.24 1137.18H1121.74V1199.57H1064.24V1137.18ZM1064.24 1134.45V1072.07H1121.74V1134.45H1064.24ZM1124.4 1072.07H1181.9V1134.45H1124.4V1072.07ZM1124.4 1069.34V1006.88H1181.9V1069.26L1124.4 1069.34ZM1124.4 1004.22V942.194H1181.9V1004.58L1124.4 1004.22ZM1124.4 939.103V876.718H1181.9V939.103H1124.4ZM1124.4 873.986V811.601H1181.9V873.986H1124.4ZM1124.4 808.87V746.413H1181.9V808.87H1124.4ZM1124.4 743.753V681.296H1181.9V743.753H1124.4ZM1124.4 678.637V616.179H1181.9V678.637H1124.4ZM1124.4 613.52V551.063H1181.9V613.52H1124.4ZM1124.4 548.404V485.946H1181.9V548.404H1124.4ZM1124.4 483.287V420.83H1181.9V483.287H1124.4ZM1124.4 418.17V355.713H1181.9V418.17H1124.4ZM1124.4 353.054V290.597H1181.9V352.838L1124.4 353.054ZM1124.4 287.937V225.48H1181.9V288.153L1124.4 287.937ZM1124.4 222.821V160.363H1181.9V222.821H1124.4ZM1124.4 157.704V95.2468H1181.9V157.704H1124.4ZM1124.4 92.5875V30.1302H1181.9V92.5875H1124.4ZM1124.4 27.4709V-35.2739H1181.9V27.1834L1124.4 27.4709ZM1124.4 -37.6457V-99.9592H1181.9V-37.502L1124.4 -37.6457ZM1124.4 -102.834V-165.22H1181.9V-102.834H1124.4ZM1124.4 -167.951V-230.336H1181.9V-167.951H1124.4ZM1124.4 -233.067V-295.453H1181.9V-233.067H1124.4ZM1124.4 -298.184V-360.569H1181.9V-298.184H1124.4ZM1124.4 -363.3V-425.686H1181.9V-363.3H1124.4ZM1121.67 -363.3H1064.17V-425.686H1121.67V-363.3ZM1061.58 -363.3H1004.09V-425.686H1061.58V-363.3ZM1001.5 -363.3H944.001V-425.686H1001.5V-363.3ZM941.342 -363.3H883.844V-425.686H941.342V-363.3ZM881.256 -363.3H823.758V-425.686H881.256V-363.3ZM821.171 -363.3H763.673V-425.686H821.171V-363.3ZM761.014 -363.3H703.516V-425.686H761.014V-363.3ZM700.928 -363.3H643.43V-425.686H700.928V-363.3ZM640.771 -363.3H583.273V-425.686H640.771V-363.3ZM580.685 -363.3H523.187V-425.686H580.685V-363.3ZM520.6 -363.3H463.102V-425.686H520.6V-363.3ZM460.442 -363.3H402.944V-425.686H460.442V-363.3ZM400.357 -363.3H342.859V-425.686H400.357V-363.3ZM340.271 -363.3H282.773V-425.686H340.271V-363.3ZM280.114 -363.3H222.616V-425.686H280.114V-363.3ZM220.029 -363.3H162.53V-425.686H220.029V-363.3ZM159.943 -363.3H102.445V-425.686H159.943V-363.3ZM99.7856 -363.3H42.2876V-425.686H99.7856V-363.3ZM39.7001 -363.3H-17.7979V-425.686H39.7001V-363.3ZM-20.3854 -363.3H-77.8834V-425.686H-20.3854V-363.3ZM-80.5427 -363.3H-138.041V-425.686H-80.5427V-363.3ZM-140.628 -363.3H-198.27V-425.686H-140.772L-140.628 -363.3ZM-200.714 -363.3H-258.212V-425.686H-200.714V-363.3ZM-260.871 -363.3H-318.369V-425.686H-260.871V-363.3ZM-320.957 -363.3H-378.455V-425.686H-320.957V-363.3ZM-381.114 -363.3H-438.612V-425.686H-381.114V-363.3ZM-381.114 -360.569V-298.184H-438.612V-360.569H-381.114ZM-441.199 -298.184H-498.698V-360.569H-441.199V-298.184ZM-441.199 -295.453V-233.067H-498.698V-295.453H-441.199ZM-441.199 -230.336V-167.951H-498.698V-230.336H-441.199ZM-441.199 -165.22V-102.834H-498.698V-165.22H-441.199ZM-441.199 -100.103V-37.6457H-498.698V-99.9592L-441.199 -100.103ZM-441.199 -34.9864V27.4709H-498.698V-35.2739L-441.199 -34.9864ZM-441.199 30.1302V92.5875H-498.698V30.1302H-441.199ZM-441.199 95.2468V157.704H-498.698V95.2468H-441.199ZM-441.199 160.363V222.821H-498.698V160.363H-441.199ZM-441.199 225.48V288.153H-498.698V225.696L-441.199 225.48ZM-441.199 290.597V352.838H-498.698V290.381L-441.199 290.597ZM-441.199 355.713V418.17H-498.698V355.713H-441.199ZM-441.199 420.83V483.287H-498.698V420.83H-441.199ZM-441.199 485.946V548.404H-498.698V485.946H-441.199ZM-441.199 551.063V613.52H-498.698V551.063H-441.199ZM-441.199 616.179V678.637H-498.698V616.179H-441.199ZM-441.199 681.296V743.753H-498.698V681.296H-441.199ZM-441.199 746.413V808.87H-498.698V746.413H-441.199ZM-441.199 811.601V873.986H-498.698V811.601H-441.199ZM-441.199 876.718V939.103H-498.698V876.718H-441.199ZM-441.199 941.834V1004.22H-498.698V942.194L-441.199 941.834ZM-441.199 1006.95V1069.34H-498.698V1006.88L-441.199 1006.95ZM-441.199 1072.07V1134.45H-498.698V1072.07H-441.199ZM-441.199 1137.18V1199.57H-498.698V1137.18H-441.199ZM-438.54 1137.18H-381.042V1199.57H-438.54V1137.18ZM-381.042 1202.3V1264.76H-438.54V1202.3H-381.042ZM-378.311 1202.3H-320.813V1264.76H-378.311V1202.3ZM-318.225 1202.3H-260.727V1264.76H-318.225V1202.3ZM-258.14 1202.3H-200.642V1264.76H-258.14V1202.3ZM-197.983 1202.3H-140.484V1264.76H-198.27L-197.983 1202.3ZM-137.897 1202.3H-80.399V1264.76H-137.897V1202.3ZM-77.7397 1202.3H-20.2416V1264.76H-77.7397V1202.3ZM-17.6542 1202.3H39.8439V1264.76H-17.6542V1202.3ZM42.4313 1202.3H99.9294V1264.76H42.4313V1202.3ZM102.589 1202.3H160.087V1264.76H102.589V1202.3ZM162.674 1202.3H220.172V1264.76H162.674V1202.3ZM222.76 1202.3H280.258V1264.76H222.76V1202.3ZM282.917 1202.3H340.415V1264.76H282.917V1202.3ZM343.003 1202.3H400.501V1264.76H343.003V1202.3ZM403.088 1202.3H460.586V1264.76H403.088V1202.3ZM463.245 1202.3H520.744V1264.76H463.245V1202.3ZM523.331 1202.3H580.829V1264.76H523.331V1202.3ZM583.416 1202.3H640.915V1264.76H583.416V1202.3ZM643.574 1202.3H701.072V1264.76H643.574V1202.3ZM703.659 1202.3H761.157V1264.76H703.659V1202.3ZM763.745 1202.3H821.243V1264.76H763.745V1202.3ZM823.902 1202.3H881.4V1264.76H823.902V1202.3ZM883.988 1202.3H941.486V1264.76H883.988V1202.3ZM944.145 1202.3H1001.64V1264.76H944.145V1202.3ZM1004.23 1202.3H1061.73V1264.76H1004.23V1202.3ZM1064.32 1202.3H1121.81V1264.76H1064.32V1202.3ZM1124.47 1202.3H1181.97V1264.76H1124.47V1202.3ZM1124.47 1199.57V1137.18H1181.97V1199.57H1124.47ZM1184.56 1137.18H1242.06V1199.57H1184.56V1137.18ZM1184.56 1134.45V1072.07H1242.06V1134.45H1184.56ZM1184.56 1069.34V1006.88H1242.06V1069.26L1184.56 1069.34ZM1184.56 1004.22V942.194H1242.06V1004.58L1184.56 1004.22ZM1184.56 939.103V876.718H1242.06V939.103H1184.56ZM1184.56 873.986V811.601H1242.06V873.986H1184.56ZM1184.56 808.87V746.413H1242.06V808.87H1184.56ZM1184.56 743.753V681.296H1242.06V743.753H1184.56ZM1184.56 678.637V616.179H1242.06V678.637H1184.56ZM1184.56 613.52V551.063H1242.06V613.52H1184.56ZM1184.56 548.404V485.946H1242.06V548.404H1184.56ZM1184.56 483.287V420.83H1242.06V483.287H1184.56ZM1184.56 418.17V355.713H1242.06V418.17H1184.56ZM1184.56 353.054V290.597H1242.06V352.838L1184.56 353.054ZM1184.56 287.937V225.48H1242.06V288.153L1184.56 287.937ZM1184.56 222.821V160.363H1242.06V222.821H1184.56ZM1184.56 157.704V95.2468H1242.06V157.704H1184.56ZM1184.56 92.5875V30.1302H1242.06V92.5875H1184.56ZM1184.56 27.4709V-35.2739H1242.06V27.1834L1184.56 27.4709ZM1184.56 -37.6457V-99.9592H1242.06V-37.502L1184.56 -37.6457ZM1184.56 -102.834V-165.22H1242.06V-102.834H1184.56ZM1184.56 -167.951V-230.336H1242.06V-167.951H1184.56ZM1184.56 -233.067V-295.453H1242.06V-233.067H1184.56ZM1184.56 -298.184V-360.569H1242.06V-298.184H1184.56ZM1184.56 -363.3V-425.686H1242.06V-363.3H1184.56ZM1184.56 -428.417V-490.803H1242.06V-428.417H1184.56ZM1181.9 -428.417H1124.4V-490.803H1181.9V-428.417ZM1121.74 -428.417H1064.24V-490.803H1121.74V-428.417ZM1061.66 -428.417H1004.16V-490.803H1061.66V-428.417ZM1001.57 -428.417H944.073V-490.803H1001.57V-428.417ZM941.414 -428.417H883.916V-490.803H941.414V-428.417ZM881.328 -428.417H823.83V-490.803H881.328V-428.417ZM821.243 -428.417H763.745V-490.803H821.243V-428.417ZM761.086 -428.417H703.587V-490.803H761.086V-428.417ZM701 -428.417H643.502V-490.803H701V-428.417ZM640.843 -428.417H583.345V-490.803H640.843V-428.417ZM580.757 -428.417H523.259V-490.803H580.757V-428.417ZM520.672 -428.417H463.174V-490.803H520.672V-428.417ZM460.514 -428.417H403.016V-490.803H460.514V-428.417ZM400.429 -428.417H342.931V-490.803H400.429V-428.417ZM340.343 -428.417H282.845V-490.803H340.343V-428.417ZM280.186 -428.417H222.688V-490.803H280.186V-428.417ZM220.1 -428.417H162.602V-490.803H220.1V-428.417ZM160.015 -428.417H102.517V-490.803H160.015V-428.417ZM99.8575 -428.417H42.3594V-490.803H99.8575V-428.417ZM39.772 -428.417H-17.7261V-490.803H39.772V-428.417ZM-20.3135 -428.417H-77.8116V-490.803H-20.3135V-428.417ZM-80.4709 -428.417H-137.969V-490.803H-80.4709V-428.417ZM-140.772 -428.417H-198.27V-490.803H-140.772V-428.417ZM-200.857 -428.417H-258.356V-490.803H-200.857V-428.417ZM-261.015 -428.417H-318.513V-490.803H-261.015V-428.417ZM-321.1 -428.417H-378.598V-490.803H-321.1V-428.417ZM-381.258 -428.417H-438.756V-490.803H-381.258V-428.417ZM-441.343 -428.417H-498.841V-490.803H-441.343V-428.417ZM-441.343 -425.686V-363.3H-498.841V-425.686H-441.343ZM-501.429 -363.3H-558.927V-425.686H-501.429V-363.3ZM-501.429 -360.569V-298.184H-558.927V-360.569H-501.429ZM-501.429 -295.453V-233.067H-558.927V-295.453H-501.429ZM-501.429 -230.336V-167.951H-558.927V-230.336H-501.429ZM-501.429 -165.22V-102.834H-558.927V-165.22H-501.429ZM-501.429 -100.103V-37.6457H-558.927V-99.9592L-501.429 -100.103ZM-501.429 -34.9864V27.4709H-558.927V-35.2739L-501.429 -34.9864ZM-501.429 30.1302V92.5875H-558.927V30.1302H-501.429ZM-501.429 95.2468V157.704H-558.927V95.2468H-501.429ZM-501.429 160.363V222.821H-558.927V160.363H-501.429ZM-501.429 225.48V288.153H-558.927V225.696L-501.429 225.48ZM-501.429 290.597V352.838H-558.927V290.381L-501.429 290.597ZM-501.429 355.713V418.17H-558.927V355.713H-501.429ZM-501.429 420.83V483.287H-558.927V420.83H-501.429ZM-501.429 485.946V548.404H-558.927V485.946H-501.429ZM-501.429 551.063V613.52H-558.927V551.063H-501.429ZM-501.429 616.179V678.637H-558.927V616.179H-501.429ZM-501.429 681.296V743.753H-558.927V681.296H-501.429ZM-501.429 746.413V808.87H-558.927V746.413H-501.429ZM-501.429 811.601V873.986H-558.927V811.601H-501.429ZM-501.429 876.718V939.103H-558.927V876.718H-501.429ZM-501.429 941.834V1004.22H-558.927V942.194L-501.429 941.834ZM-501.429 1006.95V1069.34H-558.927V1006.88L-501.429 1006.95ZM-501.429 1072.07V1134.45H-558.927V1072.07H-501.429ZM-501.429 1137.18V1199.57H-558.927V1137.18H-501.429ZM-501.429 1202.3V1264.76H-558.927V1202.3H-501.429ZM-498.769 1202.3H-441.271V1264.76H-498.769V1202.3ZM-441.271 1267.42V1329.87H-498.769V1267.42H-441.271ZM-438.612 1267.42H-381.114V1329.87H-438.612V1267.42ZM-378.455 1267.42H-320.957V1329.87H-378.455V1267.42ZM-318.369 1267.42H-260.871V1329.87H-318.369V1267.42ZM-258.284 1267.42H-200.786V1329.87H-258.284V1267.42ZM-198.126 1267.42H-140.628V1329.87H-198.27L-198.126 1267.42ZM-138.041 1267.42H-80.5427V1329.87H-138.041V1267.42ZM-77.8834 1267.42H-20.3854V1329.87H-77.8834V1267.42ZM-17.7979 1267.42H39.7001V1329.87H-17.7979V1267.42ZM42.2876 1267.42H99.7856V1329.87H42.2876V1267.42ZM102.445 1267.42H159.943V1329.87H102.445V1267.42ZM162.53 1267.42H220.029V1329.87H162.53V1267.42ZM222.616 1267.42H280.114V1329.87H222.616V1267.42ZM282.773 1267.42H340.271V1329.87H282.773V1267.42ZM342.859 1267.42H400.357V1329.87H342.859V1267.42ZM402.944 1267.42H460.442V1329.87H402.944V1267.42ZM463.102 1267.42H520.6V1329.87H463.102V1267.42ZM523.187 1267.42H580.685V1329.87H523.187V1267.42ZM583.273 1267.42H640.771V1329.87H583.273V1267.42ZM643.43 1267.42H700.928V1329.87H643.43V1267.42ZM703.516 1267.42H761.014V1329.87H703.516V1267.42ZM763.601 1267.42H821.099V1329.87H763.601V1267.42ZM823.758 1267.42H881.256V1329.87H823.758V1267.42ZM883.844 1267.42H941.342V1329.87H883.844V1267.42ZM944.001 1267.42H1001.5V1329.87H944.001V1267.42ZM1004.09 1267.42H1061.58V1329.87H1004.09V1267.42ZM1064.17 1267.42H1121.67V1329.87H1064.17V1267.42ZM1124.33 1267.42H1181.83V1329.87H1124.33V1267.42ZM1184.42 1267.42H1241.91V1329.87H1184.42V1267.42ZM1184.42 1264.76V1202.3H1241.91V1264.76H1184.42ZM1244.5 1202.3H1302V1264.76H1244.5V1202.3ZM1244.5 1199.57V1137.18H1302V1199.57H1244.5ZM1244.5 1134.45V1072.07H1302V1134.45H1244.5ZM1244.5 1069.34V1006.88H1302V1069.26L1244.5 1069.34ZM1244.5 1004.22V942.194H1302V1004.58L1244.5 1004.22ZM1244.5 939.103V876.718H1302V939.103H1244.5ZM1244.5 873.986V811.601H1302V873.986H1244.5ZM1244.5 808.87V746.413H1302V808.87H1244.5ZM1244.5 743.753V681.296H1302V743.753H1244.5ZM1244.5 678.637V616.179H1302V678.637H1244.5ZM1244.5 613.52V551.063H1302V613.52H1244.5ZM1244.5 548.404V485.946H1302V548.404H1244.5ZM1244.5 483.287V420.83H1302V483.287H1244.5ZM1244.5 418.17V355.713H1302V418.17H1244.5ZM1244.5 353.054V290.597H1302V352.838L1244.5 353.054ZM1244.5 287.937V225.48H1302V288.153L1244.5 287.937ZM1244.5 222.821V160.363H1302V222.821H1244.5ZM1244.5 157.704V95.2468H1302V157.704H1244.5ZM1244.5 92.5875V30.1302H1302V92.5875H1244.5ZM1244.5 27.4709V-35.2739H1302V27.1834L1244.5 27.4709ZM1244.5 -37.6457V-99.9592H1302V-37.502L1244.5 -37.6457ZM1244.5 -102.834V-165.22H1302V-102.834H1244.5ZM1244.5 -167.951V-230.336H1302V-167.951H1244.5ZM1244.5 -233.067V-295.453H1302V-233.067H1244.5ZM1244.5 -298.184V-360.569H1302V-298.184H1244.5ZM1244.5 -363.3V-425.686H1302V-363.3H1244.5ZM1244.5 -428.417V-490.803H1302V-428.417H1244.5ZM1244.5 -493.534V-555.991H1302V-493.534H1244.5ZM1241.84 -493.534H1184.34V-555.991H1241.84V-493.534ZM1181.76 -493.534H1124.26V-555.991H1181.76V-493.534ZM1121.6 -493.534H1064.1V-555.991H1121.6V-493.534ZM1061.51 -493.534H1004.02V-555.991H1061.51V-493.534ZM1001.43 -493.534H943.929V-555.991H1001.43V-493.534ZM941.27 -493.534H883.772V-555.991H941.27V-493.534ZM881.185 -493.534H823.687V-555.991H881.185V-493.534ZM821.099 -493.534H763.601V-555.991H821.099V-493.534ZM760.942 -493.534H703.444V-555.991H760.942V-493.534ZM700.856 -493.534H643.358V-555.991H700.856V-493.534ZM640.699 -493.534H583.201V-555.991H640.699V-493.534ZM580.613 -493.534H523.115V-555.991H580.613V-493.534ZM520.528 -493.534H463.03V-555.991H520.528V-493.534ZM460.37 -493.534H402.872V-555.991H460.37V-493.534ZM400.285 -493.534H342.787V-555.991H400.285V-493.534ZM340.199 -493.534H282.701V-555.991H340.199V-493.534ZM280.042 -493.534H222.544V-555.991H280.042V-493.534ZM219.957 -493.534H162.459V-555.991H219.957V-493.534ZM159.871 -493.534H102.373V-555.991H159.871V-493.534ZM99.7137 -493.534H42.2157V-555.991H99.7137V-493.534ZM39.6282 -493.534H-17.8698V-555.991H39.6282V-493.534ZM-20.4572 -493.534H-77.9553V-555.991H-20.4572V-493.534ZM-80.6146 -493.534H-138.113V-555.991H-80.6146V-493.534ZM-140.7 -493.534H-198.27V-555.991H-140.772L-140.7 -493.534ZM-200.786 -493.534H-258.284V-555.991H-200.786V-493.534ZM-260.943 -493.534H-318.441V-555.991H-260.943V-493.534ZM-321.029 -493.534H-378.527V-555.991H-321.029V-493.534ZM-381.186 -493.534H-438.684V-555.991H-381.186V-493.534ZM-441.271 -493.534H-498.769V-555.991H-441.271V-493.534ZM-501.357 -493.534H-558.855V-555.991H-501.357V-493.534ZM-501.357 -490.803V-428.417H-558.855V-490.803H-501.357ZM-561.586 -428.417H-619.084V-490.803H-561.586V-428.417ZM-561.586 -425.686V-363.3H-619.084V-425.686H-561.586ZM-561.586 -360.569V-298.184H-619.084V-360.569H-561.586ZM-561.586 -295.453V-233.067H-619.084V-295.453H-561.586ZM-561.586 -230.336V-167.951H-619.084V-230.336H-561.586ZM-561.586 -165.22V-102.834H-619.084V-165.22H-561.586ZM-561.586 -100.103V-37.6457H-619.084V-99.9592L-561.586 -100.103ZM-561.586 -34.9864V27.4709H-619.084V-35.2739L-561.586 -34.9864ZM-561.586 30.1302V92.5875H-619.084V30.1302H-561.586ZM-561.586 95.2468V157.704H-619.084V95.2468H-561.586ZM-561.586 160.363V222.821H-619.084V160.363H-561.586ZM-561.586 225.48V288.153H-619.084V225.696L-561.586 225.48ZM-561.586 290.597V352.838H-619.084V290.381L-561.586 290.597ZM-561.586 355.713V418.17H-619.084V355.713H-561.586ZM-561.586 420.83V483.287H-619.084V420.83H-561.586ZM-561.586 485.946V548.404H-619.084V485.946H-561.586ZM-561.586 551.063V613.52H-619.084V551.063H-561.586ZM-561.586 616.179V678.637H-619.084V616.179H-561.586ZM-561.586 681.296V743.753H-619.084V681.296H-561.586ZM-561.586 746.413V808.87H-619.084V746.413H-561.586ZM-561.586 811.601V873.986H-619.084V811.601H-561.586ZM-561.586 876.718V939.103H-619.084V876.718H-561.586ZM-561.586 941.834V1004.22H-619.084V942.194L-561.586 941.834ZM-561.586 1006.95V1069.34H-619.084V1006.88L-561.586 1006.95ZM-561.586 1072.07V1134.45H-619.084V1072.07H-561.586ZM-561.586 1137.18V1199.57H-619.084V1137.18H-561.586ZM-561.586 1202.3V1264.76H-619.084V1202.3H-561.586ZM-561.586 1267.42V1329.87H-619.084V1267.42H-561.586ZM-558.855 1267.42H-501.357V1329.87H-558.855V1267.42ZM-501.357 1332.53V1394.99H-558.855V1332.53H-501.357ZM-498.698 1332.53H-441.199V1394.99H-498.698V1332.53ZM-438.612 1332.53H-381.114V1394.99H-438.612V1332.53ZM-378.455 1332.53H-320.957V1394.99H-378.455V1332.53ZM-318.369 1332.53H-260.871V1394.99H-318.369V1332.53ZM-258.284 1332.53H-200.786V1394.99H-258.284V1332.53ZM-198.126 1332.53H-140.628V1394.99H-198.27L-198.126 1332.53ZM-138.041 1332.53H-80.5427V1394.99H-138.041V1332.53ZM-77.8834 1332.53H-20.3854V1394.99H-77.8834V1332.53ZM-17.7979 1332.53H39.7001V1394.99H-17.7979V1332.53ZM42.2876 1332.53H99.7856V1394.99H42.2876V1332.53ZM102.445 1332.53H159.943V1394.99H102.445V1332.53ZM162.53 1332.53H220.029V1394.99H162.53V1332.53ZM222.616 1332.53H280.114V1394.99H222.616V1332.53ZM282.773 1332.53H340.271V1394.99H282.773V1332.53ZM342.859 1332.53H400.357V1394.99H342.859V1332.53ZM402.944 1332.53H460.442V1394.99H402.944V1332.53ZM463.102 1332.53H520.6V1394.99H463.102V1332.53ZM523.187 1332.53H580.685V1394.99H523.187V1332.53ZM583.273 1332.53H640.771V1394.99H583.273V1332.53ZM643.43 1332.53H700.928V1394.99H643.43V1332.53ZM703.516 1332.53H761.014V1394.99H703.516V1332.53ZM763.601 1332.53H821.099V1394.99H763.601V1332.53ZM823.758 1332.53H881.256V1394.99H823.758V1332.53ZM883.844 1332.53H941.342V1394.99H883.844V1332.53ZM944.001 1332.53H1001.5V1394.99H944.001V1332.53ZM1004.09 1332.53H1061.58V1394.99H1004.09V1332.53ZM1064.17 1332.53H1121.67V1394.99H1064.17V1332.53ZM1124.33 1332.53H1181.83V1394.99H1124.33V1332.53ZM1184.42 1332.53H1241.91V1394.99H1184.42V1332.53ZM1244.5 1332.53H1302V1394.99H1244.5V1332.53ZM1244.5 1329.87V1267.42H1302V1329.87H1244.5ZM1304.66 1267.42H1362.16V1329.87H1304.66V1267.42ZM1304.66 1264.76V1202.3H1362.16V1264.76H1304.66ZM1304.66 1199.57V1137.18H1362.16V1199.57H1304.66ZM1304.66 1134.45V1072.07H1362.16V1134.45H1304.66ZM1304.66 1069.34V1006.88H1362.16V1069.26L1304.66 1069.34ZM1304.66 1004.22V942.194H1362.16V1004.58L1304.66 1004.22ZM1304.66 939.103V876.718H1362.16V939.103H1304.66ZM1304.66 873.986V811.601H1362.16V873.986H1304.66ZM1304.66 808.87V746.413H1362.16V808.87H1304.66ZM1304.66 743.753V681.296H1362.16V743.753H1304.66ZM1304.66 678.637V616.179H1362.16V678.637H1304.66ZM1304.66 613.52V551.063H1362.16V613.52H1304.66ZM1304.66 548.404V485.946H1362.16V548.404H1304.66ZM1304.66 483.287V420.83H1362.16V483.287H1304.66ZM1304.66 418.17V355.713H1362.16V418.17H1304.66ZM1304.66 353.054V290.597H1362.16V352.838L1304.66 353.054ZM1304.66 287.937V225.48H1362.16V288.153L1304.66 287.937ZM1304.66 222.821V160.363H1362.16V222.821H1304.66ZM1304.66 157.704V95.2468H1362.16V157.704H1304.66ZM1304.66 92.5875V30.1302H1362.16V92.5875H1304.66ZM1304.66 27.4709V-35.2739H1362.16V27.1834L1304.66 27.4709ZM1304.66 -37.6457V-99.9592H1362.16V-37.502L1304.66 -37.6457ZM1304.66 -102.834V-165.22H1362.16V-102.834H1304.66ZM1304.66 -167.951V-230.336H1362.16V-167.951H1304.66ZM1304.66 -233.067V-295.453H1362.16V-233.067H1304.66ZM1304.66 -298.184V-360.569H1362.16V-298.184H1304.66ZM1304.66 -363.3V-425.686H1362.16V-363.3H1304.66ZM1304.66 -428.417V-490.803H1362.16V-428.417H1304.66ZM1304.66 -493.534V-555.991H1362.16V-493.534H1304.66ZM1304.66 -558.65V-621.108H1362.16V-558.65H1304.66ZM1301.93 -558.65H1244.43V-621.108H1301.93V-558.65ZM1241.84 -558.65H1184.34V-621.108H1241.84V-558.65ZM1181.76 -558.65H1124.26V-621.108H1181.76V-558.65ZM1121.6 -558.65H1064.1V-621.108H1121.6V-558.65ZM1061.51 -558.65H1004.02V-621.108H1061.51V-558.65ZM1001.43 -558.65H943.929V-621.108H1001.43V-558.65ZM941.27 -558.65H883.772V-621.108H941.27V-558.65ZM881.185 -558.65H823.687V-621.108H881.185V-558.65ZM821.099 -558.65H763.601V-621.108H821.099V-558.65ZM760.942 -558.65H703.444V-621.108H760.942V-558.65ZM700.856 -558.65H643.358V-621.108H700.856V-558.65ZM640.699 -558.65H583.201V-621.108H640.699V-558.65ZM580.613 -558.65H523.115V-621.108H580.613V-558.65ZM520.528 -558.65H463.03V-621.108H520.528V-558.65ZM460.37 -558.65H402.872V-621.108H460.37V-558.65ZM400.285 -558.65H342.787V-621.108H400.285V-558.65ZM340.199 -558.65H282.701V-621.108H340.199V-558.65ZM280.042 -558.65H222.544V-621.108H280.042V-558.65ZM219.957 -558.65H162.459V-621.108H219.957V-558.65ZM159.871 -558.65H102.373V-621.108H159.871V-558.65ZM99.7137 -558.65H42.2157V-621.108H99.7137V-558.65ZM39.6282 -558.65H-17.8698V-621.108H39.6282V-558.65ZM-20.4572 -558.65H-77.9553V-621.108H-20.4572V-558.65ZM-80.6146 -558.65H-138.113V-621.108H-80.6146V-558.65ZM-140.7 -558.65H-198.27V-621.108H-140.772L-140.7 -558.65ZM-200.786 -558.65H-258.284V-621.108H-200.786V-558.65ZM-260.943 -558.65H-318.441V-621.108H-260.943V-558.65ZM-321.029 -558.65H-378.527V-621.108H-321.029V-558.65ZM-381.186 -558.65H-438.684V-621.108H-381.186V-558.65ZM-441.271 -558.65H-498.769V-621.108H-441.271V-558.65ZM-501.357 -558.65H-558.855V-621.108H-501.357V-558.65ZM-561.514 -558.65H-619.012V-621.108H-561.514V-558.65ZM-561.514 -555.991V-493.534H-619.012V-555.991H-561.514ZM-621.6 -493.534H-679.098V-555.991H-621.6V-493.534ZM-621.6 -490.803V-428.417H-679.098V-490.803H-621.6ZM-621.6 -425.686V-363.3H-679.098V-425.686H-621.6ZM-621.6 -360.569V-298.184H-679.098V-360.569H-621.6ZM-621.6 -295.453V-233.067H-679.098V-295.453H-621.6ZM-621.6 -230.336V-167.951H-679.098V-230.336H-621.6ZM-621.6 -165.22V-102.834H-679.098V-165.22H-621.6ZM-621.6 -100.103V-37.6457H-679.098V-99.9592L-621.6 -100.103ZM-621.6 -34.9864V27.4709H-679.098V-35.2739L-621.6 -34.9864ZM-621.6 30.1302V92.5875H-679.098V30.1302H-621.6ZM-621.6 95.2468V157.704H-679.098V95.2468H-621.6ZM-621.6 160.363V222.821H-679.098V160.363H-621.6ZM-621.6 225.48V288.153H-679.098V225.696L-621.6 225.48ZM-621.6 290.597V352.838H-679.098V290.381L-621.6 290.597ZM-621.6 355.713V418.17H-679.098V355.713H-621.6ZM-621.6 420.83V483.287H-679.098V420.83H-621.6ZM-621.6 485.946V548.404H-679.098V485.946H-621.6ZM-621.6 551.063V613.52H-679.098V551.063H-621.6ZM-621.6 616.179V678.637H-679.098V616.179H-621.6ZM-621.6 681.296V743.753H-679.098V681.296H-621.6ZM-621.6 746.413V808.87H-679.098V746.413H-621.6ZM-621.6 811.601V873.986H-679.098V811.601H-621.6ZM-621.6 876.718V939.103H-679.098V876.718H-621.6ZM-621.6 941.834V1004.22H-679.098V942.194L-621.6 941.834ZM-621.6 1006.95V1069.34H-679.098V1006.88L-621.6 1006.95ZM-621.6 1072.07V1134.45H-679.098V1072.07H-621.6ZM-621.6 1137.18V1199.57H-679.098V1137.18H-621.6ZM-621.6 1202.3V1264.76H-679.098V1202.3H-621.6ZM-621.6 1267.42V1329.87H-679.098V1267.42H-621.6ZM-621.6 1332.53V1394.99H-679.098V1332.53H-621.6ZM-618.94 1332.53H-561.442V1394.99H-618.94V1332.53ZM-561.442 1397.65V1460.11H-618.94V1397.65H-561.442ZM-558.711 1397.65H-501.213V1460.11H-558.711V1397.65ZM-498.626 1397.65H-441.128V1460.11H-498.626V1397.65ZM-438.54 1397.65H-381.042V1460.11H-438.54V1397.65ZM-378.383 1397.65H-320.885V1460.11H-378.383V1397.65ZM-318.297 1397.65H-260.799V1460.11H-318.297V1397.65ZM-258.212 1397.65H-200.714V1460.11H-258.212V1397.65ZM-198.054 1397.65H-140.556V1460.11H-198.27L-198.054 1397.65ZM-137.969 1397.65H-80.4709V1460.11H-137.969V1397.65ZM-77.8116 1397.65H-20.3135V1460.11H-77.8116V1397.65ZM-17.7261 1397.65H39.772V1460.11H-17.7261V1397.65ZM42.3594 1397.65H99.8575V1460.11H42.3594V1397.65ZM102.517 1397.65H160.015V1460.11H102.517V1397.65ZM162.602 1397.65H220.1V1460.11H162.602V1397.65ZM222.688 1397.65H280.186V1460.11H222.688V1397.65ZM282.845 1397.65H340.343V1460.11H282.845V1397.65ZM342.931 1397.65H400.429V1460.11H342.931V1397.65ZM403.016 1397.65H460.514V1460.11H403.016V1397.65ZM463.174 1397.65H520.672V1460.11H463.174V1397.65ZM523.259 1397.65H580.757V1460.11H523.259V1397.65ZM583.345 1397.65H640.843V1460.11H583.345V1397.65ZM643.502 1397.65H701V1460.11H643.502V1397.65ZM703.587 1397.65H761.086V1460.11H703.587V1397.65ZM763.673 1397.65H821.171V1460.11H763.673V1397.65ZM823.83 1397.65H881.328V1460.11H823.83V1397.65ZM883.916 1397.65H941.414V1460.11H883.916V1397.65ZM944.073 1397.65H1001.57V1460.11H944.073V1397.65ZM1004.16 1397.65H1061.66V1460.11H1004.16V1397.65ZM1064.24 1397.65H1121.74V1460.11H1064.24V1397.65ZM1124.4 1397.65H1181.9V1460.11H1124.4V1397.65ZM1184.49 1397.65H1241.99V1460.11H1184.49V1397.65ZM1244.57 1397.65H1302.07V1460.11H1244.57V1397.65ZM1304.73 1397.65H1362.23V1460.11H1304.73V1397.65ZM1304.73 1394.99V1332.53H1362.23V1394.99H1304.73ZM1364.82 1332.53H1422.31V1394.99H1364.82V1332.53ZM1364.82 1329.87V1267.42H1422.31V1329.87H1364.82ZM1364.82 1264.76V1202.3H1422.31V1264.76H1364.82ZM1364.82 1199.57V1137.18H1422.31V1199.57H1364.82ZM1364.82 1134.45V1072.07H1422.31V1134.45H1364.82ZM1364.82 1069.34V1006.88H1422.31V1069.26L1364.82 1069.34ZM1364.82 1004.22V942.194H1422.31V1004.58L1364.82 1004.22ZM1364.82 939.103V876.718H1422.31V939.103H1364.82ZM1364.82 873.986V811.601H1422.31V873.986H1364.82ZM1364.82 808.87V746.413H1422.31V808.87H1364.82ZM1364.82 743.753V681.296H1422.31V743.753H1364.82ZM1364.82 678.637V616.179H1422.31V678.637H1364.82ZM1364.82 613.52V551.063H1422.31V613.52H1364.82ZM1364.82 548.404V485.946H1422.31V548.404H1364.82ZM1364.82 483.287V420.83H1422.31V483.287H1364.82ZM1364.82 418.17V355.713H1422.31V418.17H1364.82ZM1364.82 353.054V290.597H1422.31V352.838L1364.82 353.054ZM1364.82 287.937V225.48H1422.31V288.153L1364.82 287.937ZM1364.82 222.821V160.363H1422.31V222.821H1364.82ZM1364.82 157.704V95.2468H1422.31V157.704H1364.82ZM1364.82 92.5875V30.1302H1422.31V92.5875H1364.82ZM1364.82 27.4709V-35.2739H1422.31V27.1834L1364.82 27.4709ZM1364.82 -37.6457V-99.9592H1422.31V-37.502L1364.82 -37.6457ZM1364.82 -102.834V-165.22H1422.31V-102.834H1364.82ZM1364.82 -167.951V-230.336H1422.31V-167.951H1364.82ZM1364.82 -233.067V-295.453H1422.31V-233.067H1364.82ZM1364.82 -298.184V-360.569H1422.31V-298.184H1364.82ZM1364.82 -363.3V-425.686H1422.31V-363.3H1364.82ZM1364.82 -428.417V-490.803H1422.31V-428.417H1364.82ZM1364.82 -493.534V-555.991H1422.31V-493.534H1364.82ZM1364.82 -558.65V-621.108H1422.31V-558.65H1364.82ZM1364.82 -623.767V-686.224H1422.31V-623.767H1364.82ZM1362.16 -623.767H1304.66V-686.224H1362.16V-623.767ZM1302 -623.767H1244.5V-686.224H1302V-623.767ZM1241.91 -623.767H1184.42V-686.224H1241.91V-623.767ZM1181.83 -623.767H1124.33V-686.224H1181.83V-623.767ZM1121.67 -623.767H1064.17V-686.224H1121.67V-623.767ZM1061.58 -623.767H1004.09V-686.224H1061.58V-623.767ZM1001.5 -623.767H944.001V-686.224H1001.5V-623.767ZM941.342 -623.767H883.844V-686.224H941.342V-623.767ZM881.256 -623.767H823.758V-686.224H881.256V-623.767ZM821.171 -623.767H763.673V-686.224H821.171V-623.767ZM761.014 -623.767H703.516V-686.224H761.014V-623.767ZM700.928 -623.767H643.43V-686.224H700.928V-623.767ZM640.771 -623.767H583.273V-686.224H640.771V-623.767ZM580.685 -623.767H523.187V-686.224H580.685V-623.767ZM520.6 -623.767H463.102V-686.224H520.6V-623.767ZM460.442 -623.767H402.944V-686.224H460.442V-623.767ZM400.357 -623.767H342.859V-686.224H400.357V-623.767ZM340.271 -623.767H282.773V-686.224H340.271V-623.767ZM280.114 -623.767H222.616V-686.224H280.114V-623.767ZM220.029 -623.767H162.53V-686.224H220.029V-623.767ZM159.943 -623.767H102.445V-686.224H159.943V-623.767ZM99.7856 -623.767H42.2876V-686.224H99.7856V-623.767ZM39.7001 -623.767H-17.7979V-686.224H39.7001V-623.767ZM-20.3854 -623.767H-77.8834V-686.224H-20.3854V-623.767ZM-80.5427 -623.767H-138.041V-686.224H-80.5427V-623.767ZM-140.628 -623.767H-198.27V-686.224H-140.772L-140.628 -623.767ZM-200.714 -623.767H-258.212V-686.224H-200.714V-623.767ZM-260.871 -623.767H-318.369V-686.224H-260.871V-623.767ZM-320.957 -623.767H-378.455V-686.224H-320.957V-623.767ZM-381.114 -623.767H-438.612V-686.224H-381.114V-623.767ZM-441.199 -623.767H-498.698V-686.224H-441.199V-623.767ZM-501.285 -623.767H-558.783V-686.224H-501.285V-623.767ZM-561.442 -623.767H-618.94V-686.224H-561.442V-623.767ZM-621.528 -623.767H-679.026V-686.224H-621.528V-623.767ZM-621.528 -621.108V-558.65H-679.026V-621.108H-621.528ZM-681.613 -558.65H-739.111V-621.108H-681.613V-558.65ZM-681.613 -555.991V-493.534H-739.111V-555.991H-681.613ZM-681.613 -490.803V-428.417H-739.111V-490.803H-681.613ZM-681.613 -425.686V-363.3H-739.111V-425.686H-681.613ZM-681.613 -360.569V-298.184H-739.111V-360.569H-681.613ZM-681.613 -295.453V-233.067H-739.111V-295.453H-681.613ZM-681.613 -230.336V-167.951H-739.111V-230.336H-681.613ZM-681.613 -165.22V-102.834H-739.111V-165.22H-681.613ZM-681.613 -100.103V-37.6457H-739.111V-99.9592L-681.613 -100.103ZM-681.613 -34.9864V27.4709H-739.111V-35.2739L-681.613 -34.9864ZM-681.613 30.1302V92.5875H-739.111V30.1302H-681.613ZM-681.613 95.2468V157.704H-739.111V95.2468H-681.613ZM-681.613 160.363V222.821H-739.111V160.363H-681.613ZM-681.613 225.48V288.153H-739.111V225.696L-681.613 225.48ZM-681.613 290.597V352.838H-739.111V290.381L-681.613 290.597ZM-681.613 355.713V418.17H-739.111V355.713H-681.613ZM-681.613 420.83V483.287H-739.111V420.83H-681.613ZM-681.613 485.946V548.404H-739.111V485.946H-681.613ZM-681.613 551.063V613.52H-739.111V551.063H-681.613ZM-681.613 616.179V678.637H-739.111V616.179H-681.613ZM-681.613 681.296V743.753H-739.111V681.296H-681.613ZM-681.613 746.413V808.87H-739.111V746.413H-681.613ZM-681.613 811.601V873.986H-739.111V811.601H-681.613ZM-681.613 876.718V939.103H-739.111V876.718H-681.613ZM-681.613 941.834V1004.22H-739.111V942.194L-681.613 941.834ZM-681.613 1006.95V1069.34H-739.111V1006.88L-681.613 1006.95ZM-681.613 1072.07V1134.45H-739.111V1072.07H-681.613ZM-681.613 1137.18V1199.57H-739.111V1137.18H-681.613ZM-681.613 1202.3V1264.76H-739.111V1202.3H-681.613ZM-681.613 1267.42V1329.87H-739.111V1267.42H-681.613ZM-681.613 1332.53V1394.99H-739.111V1332.53H-681.613ZM-681.613 1397.65V1460.11H-739.111V1397.65H-681.613ZM-678.954 1397.65H-621.456V1460.11H-678.954V1397.65ZM-621.456 1462.77V1525.22H-678.954V1462.77H-621.456ZM-618.797 1462.77H-561.299V1525.22H-618.797V1462.77ZM-558.639 1462.77H-501.141V1525.22H-558.639V1462.77ZM-498.554 1462.77H-441.056V1525.22H-498.554V1462.77ZM-438.468 1462.77H-380.97V1525.22H-438.468V1462.77ZM-378.311 1462.77H-320.813V1525.22H-378.311V1462.77ZM-318.225 1462.77H-260.727V1525.22H-318.225V1462.77ZM-258.14 1462.77H-200.642V1525.22H-258.14V1462.77ZM-197.983 1462.77H-140.484V1525.22H-198.27L-197.983 1462.77ZM-137.897 1462.77H-80.399V1525.22H-137.897V1462.77ZM-77.7397 1462.77H-20.2416V1525.22H-77.7397V1462.77ZM-17.6542 1462.77H39.8439V1525.22H-17.6542V1462.77ZM42.4313 1462.77H99.9294V1525.22H42.4313V1462.77ZM102.589 1462.77H160.087V1525.22H102.589V1462.77ZM162.674 1462.77H220.172V1525.22H162.674V1462.77ZM222.76 1462.77H280.258V1525.22H222.76V1462.77ZM282.917 1462.77H340.415V1525.22H282.917V1462.77ZM343.003 1462.77H400.501V1525.22H343.003V1462.77ZM403.088 1462.77H460.586V1525.22H403.088V1462.77ZM463.245 1462.77H520.744V1525.22H463.245V1462.77ZM523.331 1462.77H580.829V1525.22H523.331V1462.77ZM583.416 1462.77H640.915V1525.22H583.416V1462.77ZM643.574 1462.77H701.072V1525.22H643.574V1462.77ZM703.659 1462.77H761.157V1525.22H703.659V1462.77ZM763.745 1462.77H821.243V1525.22H763.745V1462.77ZM823.902 1462.77H881.4V1525.22H823.902V1462.77ZM883.988 1462.77H941.486V1525.22H883.988V1462.77ZM944.145 1462.77H1001.64V1525.22H944.145V1462.77ZM1004.23 1462.77H1061.73V1525.22H1004.23V1462.77ZM1064.32 1462.77H1121.81V1525.22H1064.32V1462.77ZM1124.47 1462.77H1181.97V1525.22H1124.47V1462.77ZM1184.56 1462.77H1242.06V1525.22H1184.56V1462.77ZM1244.64 1462.77H1302.14V1525.22H1244.64V1462.77ZM1304.8 1462.77H1362.3V1525.22H1304.8V1462.77ZM1364.89 1462.77H1422.39V1525.22H1364.89V1462.77ZM1364.89 1460.11V1397.65H1422.39V1460.11H1364.89ZM1424.97 1397.65H1482.47V1460.11H1424.97V1397.65ZM1424.97 1394.99V1332.53H1482.47V1394.99H1424.97ZM1424.97 1329.87V1267.42H1482.47V1329.87H1424.97ZM1424.97 1264.76V1202.3H1482.47V1264.76H1424.97ZM1424.97 1199.57V1137.18H1482.47V1199.57H1424.97ZM1424.97 1134.45V1072.07H1482.47V1134.45H1424.97ZM1424.97 1069.34V1006.88H1482.47V1069.26L1424.97 1069.34ZM1424.97 1004.22V942.194H1482.47V1004.58L1424.97 1004.22ZM1424.97 939.103V876.718H1482.47V939.103H1424.97ZM1424.97 873.986V811.601H1482.47V873.986H1424.97ZM1424.97 808.87V746.413H1482.47V808.87H1424.97ZM1424.97 743.753V681.296H1482.47V743.753H1424.97ZM1424.97 678.637V616.179H1482.47V678.637H1424.97ZM1424.97 613.52V551.063H1482.47V613.52H1424.97ZM1424.97 548.404V485.946H1482.47V548.404H1424.97ZM1424.97 483.287V420.83H1482.47V483.287H1424.97ZM1424.97 418.17V355.713H1482.47V418.17H1424.97ZM1424.97 353.054V290.597H1482.47V352.838L1424.97 353.054ZM1424.97 287.937V225.48H1482.47V288.153L1424.97 287.937ZM1424.97 222.821V160.363H1482.47V222.821H1424.97ZM1424.97 157.704V95.2468H1482.47V157.704H1424.97ZM1424.97 92.5875V30.1302H1482.47V92.5875H1424.97ZM1424.97 27.4709V-35.2739H1482.47V27.1834L1424.97 27.4709ZM1424.97 -37.6457V-99.9592H1482.47V-37.502L1424.97 -37.6457ZM1424.97 -102.834V-165.22H1482.47V-102.834H1424.97ZM1424.97 -167.951V-230.336H1482.47V-167.951H1424.97ZM1424.97 -233.067V-295.453H1482.47V-233.067H1424.97ZM1424.97 -298.184V-360.569H1482.47V-298.184H1424.97ZM1424.97 -363.3V-425.686H1482.47V-363.3H1424.97ZM1424.97 -428.417V-490.803H1482.47V-428.417H1424.97ZM1424.97 -493.534V-555.991H1482.47V-493.534H1424.97ZM1424.97 -558.65V-621.108H1482.47V-558.65H1424.97ZM1424.97 -623.767V-686.224H1482.47V-623.767H1424.97ZM1424.97 -688.883V-751.341H1482.47V-688.883H1424.97ZM1422.31 -688.883H1364.82V-751.341H1422.31V-688.883ZM1362.23 -688.883H1304.73V-751.341H1362.23V-688.883ZM1302.07 -688.883H1244.57V-751.341H1302.07V-688.883ZM1241.99 -688.883H1184.49V-751.341H1241.99V-688.883ZM1181.9 -688.883H1124.4V-751.341H1181.9V-688.883ZM1121.74 -688.883H1064.24V-751.341H1121.74V-688.883ZM1061.66 -688.883H1004.16V-751.341H1061.66V-688.883ZM1001.57 -688.883H944.073V-751.341H1001.57V-688.883ZM941.414 -688.883H883.916V-751.341H941.414V-688.883ZM881.328 -688.883H823.83V-751.341H881.328V-688.883ZM821.243 -688.883H763.745V-751.341H821.243V-688.883ZM761.086 -688.883H703.587V-751.341H761.086V-688.883ZM701 -688.883H643.502V-751.341H701V-688.883ZM640.843 -688.883H583.345V-751.341H640.843V-688.883ZM580.757 -688.883H523.259V-751.341H580.757V-688.883ZM520.672 -688.883H463.174V-751.341H520.672V-688.883ZM460.514 -688.883H403.016V-751.341H460.514V-688.883ZM400.429 -688.883H342.931V-751.341H400.429V-688.883ZM340.343 -688.883H282.845V-751.341H340.343V-688.883ZM280.186 -688.883H222.688V-751.341H280.186V-688.883ZM220.1 -688.883H162.602V-751.341H220.1V-688.883ZM160.015 -688.883H102.517V-751.341H160.015V-688.883ZM99.8575 -688.883H42.3594V-751.341H99.8575V-688.883ZM39.772 -688.883H-17.7261V-751.341H39.772V-688.883ZM-20.3135 -688.883H-77.8116V-751.341H-20.3135V-688.883ZM-80.4709 -688.883H-137.969V-751.341H-80.4709V-688.883ZM-140.772 -688.883H-198.27V-751.341H-140.772V-688.883ZM-200.857 -688.883H-258.356V-751.341H-200.857V-688.883ZM-261.015 -688.883H-318.513V-751.341H-261.015V-688.883ZM-321.1 -688.883H-378.598V-751.341H-321.1V-688.883ZM-381.258 -688.883H-438.756V-751.341H-381.258V-688.883ZM-441.343 -688.883H-498.841V-751.341H-441.343V-688.883ZM-501.429 -688.883H-558.927V-751.341H-501.429V-688.883ZM-561.586 -688.883H-619.084V-751.341H-561.586V-688.883ZM-621.672 -688.883H-679.17V-751.341H-621.672V-688.883ZM-681.757 -688.883H-739.255V-751.341H-681.757V-688.883ZM-681.757 -686.224V-623.767H-739.255V-686.224H-681.757ZM-741.915 -623.767H-799.413V-686.224H-741.915V-623.767ZM-741.915 -621.108V-558.65H-799.413V-621.108H-741.915ZM-741.915 -555.991V-493.534H-799.413V-555.991H-741.915ZM-741.915 -490.803V-428.417H-799.413V-490.803H-741.915ZM-741.915 -425.686V-363.3H-799.413V-425.686H-741.915ZM-741.915 -360.569V-298.184H-799.413V-360.569H-741.915ZM-741.915 -295.453V-233.067H-799.413V-295.453H-741.915ZM-741.915 -230.336V-167.951H-799.413V-230.336H-741.915ZM-741.915 -165.22V-102.834H-799.413V-165.22H-741.915ZM-741.915 -100.103V-37.6457H-799.413V-99.9592L-741.915 -100.103ZM-741.915 -34.9864V27.4709H-799.413V-35.2739L-741.915 -34.9864ZM-741.915 30.1302V92.5875H-799.413V30.1302H-741.915ZM-741.915 95.2468V157.704H-799.413V95.2468H-741.915ZM-741.915 160.363V222.821H-799.413V160.363H-741.915ZM-741.915 225.48V288.153H-799.413V225.696L-741.915 225.48ZM-741.915 290.597V352.838H-799.413V290.381L-741.915 290.597ZM-741.915 355.713V418.17H-799.413V355.713H-741.915ZM-741.915 420.83V483.287H-799.413V420.83H-741.915ZM-741.915 485.946V548.404H-799.413V485.946H-741.915ZM-741.915 551.063V613.52H-799.413V551.063H-741.915ZM-741.915 616.179V678.637H-799.413V616.179H-741.915ZM-741.915 681.296V743.753H-799.413V681.296H-741.915ZM-741.915 746.413V808.87H-799.413V746.413H-741.915ZM-741.915 811.601V873.986H-799.413V811.601H-741.915ZM-741.915 876.718V939.103H-799.413V876.718H-741.915ZM-741.915 941.834V1004.22H-799.413V942.194L-741.915 941.834ZM-741.915 1006.95V1069.34H-799.413V1006.88L-741.915 1006.95ZM-741.915 1072.07V1134.45H-799.413V1072.07H-741.915ZM-741.915 1137.18V1199.57H-799.413V1137.18H-741.915ZM-741.915 1202.3V1264.76H-799.413V1202.3H-741.915ZM-741.915 1267.42V1329.87H-799.413V1267.42H-741.915ZM-741.915 1332.53V1394.99H-799.413V1332.53H-741.915ZM-741.915 1397.65V1460.11H-799.413V1397.65H-741.915ZM-741.915 1462.77V1525.22H-799.413V1462.77H-741.915ZM-739.183 1462.77H-681.685V1525.22H-739.183V1462.77ZM-681.685 1527.88V1590.34H-739.183V1527.88H-681.685ZM-679.026 1527.88H-621.528V1590.34H-679.026V1527.88ZM-618.94 1527.88H-561.442V1590.34H-618.94V1527.88ZM-558.783 1527.88H-501.285V1590.34H-558.783V1527.88ZM-498.698 1527.88H-441.199V1590.34H-498.698V1527.88ZM-438.612 1527.88H-381.114V1590.34H-438.612V1527.88ZM-378.455 1527.88H-320.957V1590.34H-378.455V1527.88ZM-318.369 1527.88H-260.871V1590.34H-318.369V1527.88ZM-258.284 1527.88H-200.786V1590.34H-258.284V1527.88ZM-198.126 1527.88H-140.628V1590.34H-198.27L-198.126 1527.88ZM-138.041 1527.88H-80.5427V1590.34H-138.041V1527.88ZM-77.8834 1527.88H-20.3854V1590.34H-77.8834V1527.88ZM-17.7979 1527.88H39.7001V1590.34H-17.7979V1527.88ZM42.2876 1527.88H99.7856V1590.34H42.2876V1527.88ZM102.445 1527.88H159.943V1590.34H102.445V1527.88ZM162.53 1527.88H220.029V1590.34H162.53V1527.88ZM222.616 1527.88H280.114V1590.34H222.616V1527.88ZM282.773 1527.88H340.271V1590.34H282.773V1527.88ZM342.859 1527.88H400.357V1590.34H342.859V1527.88ZM402.944 1527.88H460.442V1590.34H402.944V1527.88ZM463.102 1527.88H520.6V1590.34H463.102V1527.88ZM523.187 1527.88H580.685V1590.34H523.187V1527.88ZM583.273 1527.88H640.771V1590.34H583.273V1527.88ZM643.43 1527.88H700.928V1590.34H643.43V1527.88ZM703.516 1527.88H761.014V1590.34H703.516V1527.88ZM763.601 1527.88H821.099V1590.34H763.601V1527.88ZM823.758 1527.88H881.256V1590.34H823.758V1527.88ZM883.844 1527.88H941.342V1590.34H883.844V1527.88ZM944.001 1527.88H1001.5V1590.34H944.001V1527.88ZM1004.09 1527.88H1061.58V1590.34H1004.09V1527.88ZM1064.17 1527.88H1121.67V1590.34H1064.17V1527.88ZM1124.33 1527.88H1181.83V1590.34H1124.33V1527.88ZM1184.42 1527.88H1241.91V1590.34H1184.42V1527.88ZM1244.5 1527.88H1302V1590.34H1244.5V1527.88ZM1304.66 1527.88H1362.16V1590.34H1304.66V1527.88ZM1364.74 1527.88H1422.24V1590.34H1364.74V1527.88ZM1424.83 1527.88H1482.33V1590.34H1424.83V1527.88ZM1424.83 1525.22V1462.77H1482.33V1525.22H1424.83ZM1484.99 1462.77H1542.48V1525.22H1484.99V1462.77ZM1484.99 1460.11V1397.65H1542.48V1460.11H1484.99ZM1484.99 1394.99V1332.53H1542.48V1394.99H1484.99ZM1484.99 1329.87V1267.42H1542.48V1329.87H1484.99ZM1484.99 1264.76V1202.3H1542.48V1264.76H1484.99ZM1484.99 1199.57V1137.18H1542.48V1199.57H1484.99ZM1484.99 1134.45V1072.07H1542.48V1134.45H1484.99ZM1484.99 1069.34V1006.88H1542.48V1069.26L1484.99 1069.34ZM1484.99 1004.22V942.194H1542.48V1004.58L1484.99 1004.22ZM1484.99 939.103V876.718H1542.48V939.103H1484.99ZM1484.99 873.986V811.601H1542.48V873.986H1484.99ZM1484.99 808.87V746.413H1542.48V808.87H1484.99ZM1484.99 743.753V681.296H1542.48V743.753H1484.99ZM1484.99 678.637V616.179H1542.48V678.637H1484.99ZM1484.99 613.52V551.063H1542.48V613.52H1484.99ZM1484.99 548.404V485.946H1542.48V548.404H1484.99ZM1484.99 483.287V420.83H1542.48V483.287H1484.99ZM1484.99 418.17V355.713H1542.48V418.17H1484.99ZM1484.99 353.054V290.597H1542.48V352.838L1484.99 353.054ZM1484.99 287.937V225.48H1542.48V288.153L1484.99 287.937ZM1484.99 222.821V160.363H1542.48V222.821H1484.99ZM1484.99 157.704V95.2468H1542.48V157.704H1484.99ZM1484.99 92.5875V30.1302H1542.48V92.5875H1484.99ZM1484.99 27.4709V-35.2739H1542.48V27.1834L1484.99 27.4709ZM1484.99 -37.6457V-99.9592H1542.48V-37.502L1484.99 -37.6457ZM1484.99 -102.834V-165.22H1542.48V-102.834H1484.99ZM1484.99 -167.951V-230.336H1542.48V-167.951H1484.99ZM1484.99 -233.067V-295.453H1542.48V-233.067H1484.99ZM1484.99 -298.184V-360.569H1542.48V-298.184H1484.99ZM1484.99 -363.3V-425.686H1542.48V-363.3H1484.99ZM1484.99 -428.417V-490.803H1542.48V-428.417H1484.99ZM1484.99 -493.534V-555.991H1542.48V-493.534H1484.99ZM1484.99 -558.65V-621.108H1542.48V-558.65H1484.99ZM1484.99 -623.767V-686.224H1542.48V-623.767H1484.99ZM-741.915 -751.341V-688.883H-799.413V-751.341H-741.915ZM-799.413 1527.88H-741.915V1590.34H-799.413V1527.88ZM1484.84 1590.34V1527.88H1542.34V1590.34H1484.84Z" fill="url(#paint0_radial_168_1710)"/>
<defs>
<radialGradient id="paint0_radial_168_1710" cx="0" cy="0" r="1" gradientUnits="userSpaceOnUse" gradientTransform="translate(371.5 419.5) rotate(90) scale(494)">
<stop stop-color="#FFFFFF"/>
<stop offset="1" stop-color="#FFFFFF" stop-opacity="0"/>
</radialGradient>
</defs>
</svg>
