<svg width="18" height="18" viewBox="0 0 18 18" fill="none" xmlns="http://www.w3.org/2000/svg">
<g clip-path="url(#clip0_1040_12698)">
<path d="M7.866 1.58496C4.26225 2.13246 1.5 5.24346 1.5 9.00021C1.5 12.7577 4.26375 15.8702 7.86975 16.4155C8.61776 16.5284 9.37849 16.5284 10.1265 16.4155C11.7085 16.1745 13.1721 15.4341 14.3035 14.3025C15.435 13.1709 16.1752 11.7072 16.416 10.1252" stroke="#898A93" stroke-width="1.5" stroke-linecap="round" stroke-linejoin="round"/>
<path d="M16.4153 7.87273C16.1743 6.2913 15.4344 4.82823 14.3033 3.69694C13.1723 2.56565 11.7094 1.82534 10.1281 1.58398" stroke="#898A93" stroke-width="1.5" stroke-linecap="round" stroke-linejoin="round"/>
<path d="M9 6C8.20435 6 7.44129 6.31607 6.87868 6.87868C6.31607 7.44129 6 8.20435 6 9C6 9.79565 6.31607 10.5587 6.87868 11.1213C7.44129 11.6839 8.20435 12 9 12C9.79565 12 10.5587 11.6839 11.1213 11.1213C11.6839 10.5587 12 9.79565 12 9C12 8.20435 11.6839 7.44129 11.1213 6.87868C10.5587 6.31607 9.79565 6 9 6V6Z" stroke="#898A93" stroke-width="1.5" stroke-linecap="round" stroke-linejoin="round"/>
</g>
<defs>
<clipPath id="clip0_1040_12698">
<rect width="18" height="18" fill="white"/>
</clipPath>
</defs>
</svg>
