<svg width="14" height="15" viewBox="0 0 14 15" fill="none" xmlns="http://www.w3.org/2000/svg">
<path d="M6.99984 13.3332C7.76602 13.3341 8.52484 13.1837 9.2327 12.8904C9.94056 12.5972 10.5835 12.167 11.1246 11.6246C11.667 11.0835 12.0972 10.4406 12.3904 9.7327C12.6837 9.02484 12.8341 8.26602 12.8332 7.49984C12.8342 6.73365 12.6837 5.97483 12.3905 5.26697C12.0973 4.5591 11.6671 3.91616 11.1246 3.37509C10.5835 2.83261 9.94058 2.4024 9.23272 2.10919C8.52486 1.81597 7.76603 1.66553 6.99984 1.66651C6.23365 1.66553 5.47483 1.81597 4.76697 2.10919C4.0591 2.4024 3.41616 2.83261 2.87509 3.37509C2.33261 3.91616 1.9024 4.5591 1.60919 5.26697C1.31597 5.97483 1.16553 6.73365 1.16651 7.49984C1.16553 8.26603 1.31597 9.02486 1.60919 9.73272C1.9024 10.4406 2.33261 11.0835 2.87509 11.6246C3.41616 12.1671 4.0591 12.5973 4.76697 12.8905C5.47483 13.1837 6.23365 13.3342 6.99984 13.3332V13.3332Z" stroke="#2A5DE3" stroke-linecap="round" stroke-linejoin="round"/>
<path d="M4.6665 7.5L6.4165 9.25L9.9165 5.75" stroke="#2A5DE3" stroke-linecap="round" stroke-linejoin="round"/>
</svg>
