<svg width="29" height="46" viewBox="0 0 29 46" fill="none" xmlns="http://www.w3.org/2000/svg">
<path fill-rule="evenodd" clip-rule="evenodd" d="M15.5045 0.587423C11.1872 1.13776 7.31717 4.48689 6.13331 8.69741C5.74092 10.0928 5.7002 10.7404 5.69967 15.5902L5.69915 20.1848L5.16482 19.7542C4.17047 18.9529 2.75295 18.4266 1.58906 18.4266C1.07997 18.4266 0.999064 18.4523 0.762327 18.6891L0.5 18.9515L0.537024 24.5151C0.576421 30.4213 0.569562 30.3155 1.03292 32.1261C1.74577 34.9116 3.28781 37.6439 5.42662 39.9114C6.71803 41.2805 7.1062 42.2091 7.1062 43.9291C7.1062 44.8876 7.12273 44.994 7.30406 45.2027C7.56516 45.5032 8.07539 45.5891 8.38697 45.3849C8.74911 45.1476 8.86519 44.7456 8.86352 43.7344C8.86141 42.496 8.69195 41.768 8.15832 40.7042C7.79117 39.9723 7.53165 39.612 6.73298 38.7256C6.19601 38.1294 5.55255 37.3647 5.30324 37.0261C3.92811 35.1589 3.002 33.0795 2.52132 30.7797C2.32802 29.8549 2.31844 29.6168 2.28968 25.0335L2.25969 20.2519L2.50637 20.3099C3.55876 20.5574 4.71834 21.5265 5.21415 22.5727C5.64075 23.4729 5.69915 23.8962 5.69915 26.0881V28.0094L5.94098 28.2684C6.12812 28.4688 6.35175 28.5681 6.93032 28.7082C9.27367 29.2754 11.3857 31.0614 12.1697 33.1389C12.5763 34.2162 13.1703 34.5438 13.7829 34.0283C14.1237 33.7416 14.14 33.3592 13.8463 32.5498C12.9868 30.1819 10.7524 28.1269 8.05156 27.2204L7.45796 27.0211V22.4864C7.45796 19.9923 7.49111 17.9894 7.53165 18.0353C7.5722 18.0813 7.78484 18.3563 8.00407 18.6465C8.55361 19.3737 9.48939 20.2967 10.2501 20.8619L10.8876 21.3356L10.888 23.025C10.8883 24.5227 10.9071 24.7451 11.0534 24.9853C11.3765 25.5151 12.0187 25.586 12.4341 25.1378C12.6388 24.9168 12.6465 24.8614 12.6465 23.6023C12.6465 22.8838 12.6655 22.296 12.6886 22.296C12.7117 22.296 13.0249 22.3948 13.3844 22.5154C14.0415 22.736 14.8828 22.9298 15.6584 23.0393L16.0762 23.0983V23.8432C16.0762 24.7623 16.2177 25.1426 16.6336 25.341C16.9986 25.515 17.3235 25.4537 17.6227 25.1546C17.8198 24.9575 17.835 24.8769 17.835 24.0334V23.1245L18.7364 22.9806C19.4715 22.8632 20.6013 22.5655 21.2364 22.3218C21.3295 22.2861 21.3526 22.533 21.3526 23.5604V24.8435L21.6075 25.1287C21.8183 25.3647 21.926 25.414 22.232 25.414C22.538 25.414 22.6457 25.3647 22.8566 25.1287L23.1114 24.8435V23.0938V21.3442L23.705 20.9211C24.4422 20.3958 25.6779 19.1585 26.1454 18.4776L26.4971 17.9652L26.5411 21.3878C26.5896 25.1599 26.5861 25.1377 27.1482 25.3704C27.4808 25.5082 27.8096 25.4326 28.0876 25.1546L28.2999 24.9423V17.8265C28.2999 11.8323 28.2786 10.5878 28.1651 9.9299C27.5633 6.44278 25.3845 3.44981 22.2237 1.76838C20.2873 0.738241 17.7794 0.297482 15.5045 0.587423ZM19.3344 2.53777C22.9736 3.47531 25.6372 6.22223 26.3847 9.80845C26.6281 10.9766 26.5681 12.8198 26.2464 14.054C25.347 17.5056 22.694 20.1869 19.2959 21.0787C18.2712 21.3476 16.3857 21.4032 15.3247 21.1958C10.2043 20.195 6.76789 15.343 7.58987 10.2748C8.23316 6.30841 11.367 3.13304 15.3732 2.38845C16.4605 2.18636 18.2289 2.25302 19.3344 2.53777ZM13.1181 5.31661C11.9656 5.83995 11.2594 7.08633 11.3464 8.44317C11.4504 10.0629 12.6192 11.2595 14.0975 11.2595C15.1879 11.2595 16.0779 10.6513 16.5919 9.55518C16.7938 9.12445 16.8237 8.94795 16.8237 8.18155C16.8237 7.39791 16.797 7.24797 16.5791 6.80431C16.2642 6.16313 15.7407 5.62775 15.1678 5.36102C14.5854 5.08981 13.6617 5.06985 13.1181 5.31661ZM19.6524 5.77575C19.522 5.88972 18.0111 8.33403 16.2948 11.2075C13.0645 16.6153 13.0097 16.7239 13.2647 17.2003C13.3145 17.2934 13.4776 17.4328 13.6271 17.5101C14.0146 17.7105 14.4368 17.6112 14.7 17.2577C14.8155 17.1026 16.2804 14.6782 17.9554 11.8702C21.2498 6.34745 21.2293 6.39037 20.8028 5.89456C20.5123 5.55678 19.967 5.5005 19.6524 5.77575ZM14.6239 7.09706C15.1137 7.48233 15.2518 8.30405 14.932 8.93071C14.7603 9.26735 14.3834 9.54463 14.0975 9.54463C13.5904 9.54463 13.0921 8.88103 13.0881 8.20072C13.0841 7.50001 13.547 6.9064 14.0975 6.9064C14.2557 6.9064 14.4889 6.99083 14.6239 7.09706ZM19.4815 12.1897C18.6483 12.3229 17.8426 12.9998 17.4085 13.9311C17.214 14.3484 17.1781 14.5486 17.1773 15.2168C17.1764 15.9214 17.2064 16.0719 17.4504 16.5877C17.9689 17.6837 18.8285 18.2796 19.9016 18.2868C20.9539 18.2939 21.8627 17.7059 22.3644 16.6933C22.7161 15.9836 22.7768 14.8358 22.5013 14.1048C21.9821 12.727 20.8018 11.9786 19.4815 12.1897ZM20.4436 14.0932C21.109 14.5219 21.0491 15.9807 20.3483 16.4178C19.9842 16.6449 19.6214 16.5692 19.2707 16.1929C18.3325 15.1866 19.3404 13.3824 20.4436 14.0932ZM26.8696 27.3559C26.5717 27.6538 26.5109 27.9456 26.6684 28.3224C26.9216 28.9284 27.8094 29.0309 28.1608 28.4945C28.712 27.6533 27.5749 26.6506 26.8696 27.3559ZM26.7829 30.8333C26.5611 30.9625 26.4058 31.3169 26.2849 31.9695C25.9122 33.9821 24.8656 36.2776 22.9046 39.3838C22.5018 40.0218 22.0662 40.8099 21.9363 41.1353C21.5907 42.002 21.4023 43.2799 21.4809 44.2244C21.558 45.1499 21.7231 45.4084 22.2857 45.4837C22.5996 45.5259 22.6857 45.4973 22.945 45.2649L23.2433 44.9976L23.2198 44.1594C23.1957 43.2987 23.3523 42.2817 23.6004 41.688C23.6728 41.5144 24.0595 40.8496 24.4595 40.2106C26.0132 37.7288 26.9528 35.8711 27.5051 34.189C27.8651 33.0924 28.124 31.9789 28.124 31.5267C28.124 31.1196 27.7105 30.7376 27.2734 30.741C27.0883 30.7425 26.8675 30.784 26.7829 30.8333Z" fill="#2F69FE"/>
</svg>
