<svg width="14" height="14" viewBox="0 0 14 14" fill="none" xmlns="http://www.w3.org/2000/svg">
<g clip-path="url(#clip0_4119_426620)">
<path d="M7.00131 12.8346C7.76749 12.8356 8.52631 12.6851 9.23416 12.3919C9.94202 12.0987 10.585 11.6685 11.1261 11.1261C11.6685 10.585 12.0987 9.94202 12.3919 9.23416C12.6851 8.52631 12.8356 7.76749 12.8346 7.00131C12.8356 6.23512 12.6852 5.47629 12.392 4.76843C12.0987 4.06057 11.6685 3.41763 11.1261 2.87656C10.585 2.33408 9.94204 1.90387 9.23418 1.61065C8.52632 1.31744 7.76749 1.167 7.00131 1.16797C6.23512 1.167 5.47629 1.31744 4.76843 1.61065C4.06057 1.90387 3.41763 2.33408 2.87656 2.87656C2.33408 3.41763 1.90387 4.06057 1.61065 4.76843C1.31744 5.47629 1.167 6.23512 1.16797 7.00131C1.167 7.76749 1.31744 8.52632 1.61065 9.23418C1.90387 9.94204 2.33408 10.585 2.87656 11.1261C3.41763 11.6685 4.06057 12.0987 4.76843 12.392C5.47629 12.6852 6.23512 12.8356 7.00131 12.8346V12.8346Z" stroke="#898A93" stroke-linecap="round" stroke-linejoin="round"/>
<path fill-rule="evenodd" clip-rule="evenodd" d="M6.9987 3.20703C7.19208 3.20703 7.37755 3.28385 7.5143 3.4206C7.65104 3.55734 7.72786 3.74281 7.72786 3.9362C7.72786 4.12958 7.65104 4.31505 7.5143 4.4518C7.37755 4.58854 7.19208 4.66536 6.9987 4.66536C6.80531 4.66536 6.61984 4.58854 6.4831 4.4518C6.34635 4.31505 6.26953 4.12958 6.26953 3.9362C6.26953 3.74281 6.34635 3.55734 6.4831 3.4206C6.61984 3.28385 6.80531 3.20703 6.9987 3.20703Z" fill="#898A93"/>
<path d="M7.14583 9.91536V5.83203H6.5625" stroke="#898A93" stroke-linecap="round" stroke-linejoin="round"/>
<path d="M6.125 9.91797H8.16667" stroke="#898A93" stroke-linecap="round" stroke-linejoin="round"/>
</g>
<defs>
<clipPath id="clip0_4119_426620">
<rect width="14" height="14" fill="white"/>
</clipPath>
</defs>
</svg>

