<svg width="20" height="21" viewBox="0 0 20 21" fill="none" xmlns="http://www.w3.org/2000/svg">
<path d="M2.5 16.3337H17.5M4.16667 16.3337V8.00033C4.16667 7.23428 4.31755 6.47574 4.6107 5.76801C4.90385 5.06027 5.33354 4.41721 5.87521 3.87554C6.41689 3.33386 7.05995 2.90418 7.76768 2.61103C8.47541 2.31788 9.23396 2.16699 10 2.16699C10.766 2.16699 11.5246 2.31788 12.2323 2.61103C12.9401 2.90418 13.5831 3.33386 14.1248 3.87554C14.6665 4.41721 15.0961 5.06027 15.3893 5.76801C15.6824 6.47574 15.8333 7.23428 15.8333 8.00033V16.3337H4.16667Z" stroke="#898A93" stroke-width="1.5" stroke-linecap="round" stroke-linejoin="round"/>
<path d="M10.0001 18.833C10.5526 18.833 11.0825 18.6135 11.4732 18.2228C11.8639 17.8321 12.0834 17.3022 12.0834 16.7497V16.333H7.91675V16.7497C7.91675 17.3022 8.13624 17.8321 8.52694 18.2228C8.91764 18.6135 9.44755 18.833 10.0001 18.833V18.833Z" stroke="#898A93" stroke-width="1.5" stroke-linecap="round" stroke-linejoin="round"/>
</svg>
