<?xml version="1.0" encoding="UTF-8"?>
<svg width="11px" height="20px" viewBox="0 0 11 20" fill="#fff" version="1.1" xmlns="http://www.w3.org/2000/svg" xmlns:xlink="http://www.w3.org/1999/xlink">
    <!-- Generator: sketchtool 63.1 (101010) - https://sketch.com -->
    <title>7B54ECE4-716D-4D90-BA01-363879CB3246@2x</title>
    <desc>Created with sketchtool.</desc>
    <g id="Mobile-Bidding-Round-5" stroke="none" stroke-width="1" fill-rule="evenodd">
        <g id="Item-Description-Page---auto-bid---ON" transform="translate(-289.000000, -672.000000)" fill="#FFFFFF" width="11px" height="20px">
            <g id="Group-4" transform="translate(20.000000, 657.000000)">
                <path d="M278.342017,34.7768769 L269.215999,25.5269548 C268.928,25.2350823 268.928,24.7650862 269.215999,24.4732137 L278.342017,15.2232916 C278.63314,14.9276691 279.107933,14.9257941 279.402179,15.2164167 C279.696426,15.5076642 279.699549,15.9820352 279.409051,16.2770327 L270.803432,25.0000842 L279.409051,33.7231358 C279.699549,34.0181333 279.696426,34.4925043 279.402179,34.7837518 C279.255993,34.9281256 279.066076,35 278.875534,35 C278.681869,35 278.488828,34.9256256 278.342017,34.7768769 Z" id="right-arrow-icon" transform="translate(274.312455, 25.000000) scale(-1, 1) rotate(-360.000000) translate(-274.312455, -25.000000) "></path>
            </g>
        </g>
    </g>
</svg>
