<svg width="18" height="18" viewBox="0 0 18 18" fill="none" xmlns="http://www.w3.org/2000/svg">
<path d="M6.85651 16.1883C5.61603 15.8179 4.49257 15.1327 3.59551 14.1993C3.88407 13.857 4.06397 13.4364 4.11218 12.9913C4.16039 12.5462 4.07473 12.0969 3.86615 11.7008C3.65758 11.3046 3.33557 10.9797 2.94132 10.7676C2.54708 10.5555 2.09851 10.4658 1.65301 10.51C1.39692 9.26068 1.46221 7.96676 1.84276 6.74953H1.87501C2.25739 6.74959 2.63347 6.6522 2.96776 6.46655C3.30204 6.2809 3.5835 6.01312 3.78556 5.68849C3.98762 5.36386 4.10361 4.99309 4.12259 4.61119C4.14156 4.22928 4.0629 3.84884 3.89401 3.50578C4.77322 2.68663 5.83667 2.09111 6.99451 1.76953C7.18276 2.13964 7.46974 2.45043 7.8237 2.66751C8.17766 2.8846 8.58479 2.9995 9.00001 2.9995C9.41524 2.9995 9.82237 2.8846 10.1763 2.66751C10.5303 2.45043 10.8173 2.13964 11.0055 1.76953C12.1633 2.09089 13.2267 2.68615 14.106 3.50503C13.9357 3.85052 13.857 4.23395 13.8773 4.61859C13.8977 5.00323 14.0164 5.37621 14.2222 5.70181C14.428 6.02741 14.7139 6.29474 15.0526 6.47819C15.3913 6.66164 15.7714 6.75507 16.1565 6.74953C16.5377 7.96687 16.6035 9.26106 16.3478 10.5108C15.9023 10.4666 15.4537 10.5562 15.0595 10.7684C14.6652 10.9805 14.3432 11.3054 14.1346 11.7015C13.926 12.0976 13.8404 12.547 13.8886 12.9921C13.9368 13.4372 14.1167 13.8577 14.4053 14.2C13.5079 15.1333 12.3842 15.8182 11.1435 16.1883C10.998 15.7341 10.7121 15.3378 10.3268 15.0567C9.94155 14.7755 9.47694 14.624 9.00001 14.624C8.52308 14.624 8.05848 14.7755 7.67323 15.0567C7.28797 15.3378 7.00198 15.7341 6.85651 16.1883V16.1883Z" stroke="#2F69FE" stroke-width="1.5" stroke-linejoin="round"/>
<path d="M9 11.625C9.34472 11.625 9.68606 11.5571 10.0045 11.4252C10.323 11.2933 10.6124 11.0999 10.8562 10.8562C11.0999 10.6124 11.2933 10.323 11.4252 10.0045C11.5571 9.68606 11.625 9.34472 11.625 9C11.625 8.65528 11.5571 8.31394 11.4252 7.99546C11.2933 7.67698 11.0999 7.3876 10.8562 7.14384C10.6124 6.90009 10.323 6.70673 10.0045 6.57482C9.68606 6.4429 9.34472 6.375 9 6.375C8.30381 6.375 7.63613 6.65156 7.14384 7.14384C6.65156 7.63613 6.375 8.30381 6.375 9C6.375 9.69619 6.65156 10.3639 7.14384 10.8562C7.63613 11.3484 8.30381 11.625 9 11.625V11.625Z" stroke="#2F69FE" stroke-width="1.5" stroke-linejoin="round"/>
</svg>
