<svg width="18" height="18" viewBox="0 0 18 18" fill="none" xmlns="http://www.w3.org/2000/svg">
<path d="M8.26202 16.137C8.10965 16.2894 7.90299 16.375 7.6875 16.375C7.47201 16.375 7.26535 16.2894 7.11298 16.137C6.9606 15.9847 6.875 15.778 6.875 15.5625C6.875 15.347 6.9606 15.1403 7.11298 14.988C7.26535 14.8356 7.47201 14.75 7.6875 14.75C7.90299 14.75 8.10965 14.8356 8.26202 14.988C8.4144 15.1403 8.5 15.347 8.5 15.5625C8.5 15.778 8.4144 15.9847 8.26202 16.137Z" fill="#898A93" stroke="#898A93"/>
<path d="M14.637 16.137C14.4847 16.2894 14.278 16.375 14.0625 16.375C13.847 16.375 13.6403 16.2894 13.488 16.137C13.3356 15.9847 13.25 15.778 13.25 15.5625C13.25 15.347 13.3356 15.1403 13.488 14.988C13.6403 14.8356 13.847 14.75 14.0625 14.75C14.278 14.75 14.4847 14.8356 14.637 14.988C14.7894 15.1403 14.875 15.347 14.875 15.5625C14.875 15.778 14.7894 15.9847 14.637 16.137Z" fill="#898A93" stroke="#898A93"/>
<path d="M5.25 4.5L7.125 12.75H14.625L16.5 6.375" stroke="#898A93" stroke-width="1.5" stroke-linecap="round" stroke-linejoin="round"/>
<path d="M9.375 9.75H15.375" stroke="#898A93" stroke-width="1.5" stroke-linecap="round" stroke-linejoin="round"/>
<path d="M1.875 2.25L5.25 4.5" stroke="#898A93" stroke-width="1.5" stroke-linecap="round" stroke-linejoin="round"/>
<path d="M16.5 6.375H9.375" stroke="#898A93" stroke-width="1.5" stroke-linecap="round" stroke-linejoin="round"/>
</svg>
