<svg width="20px" height="20px" viewBox="0 0 20 20" fill="none" xmlns="http://www.w3.org/2000/svg">
<path d="M10.0033 17.083L10 9.58301" stroke="#2F69FE" stroke-linecap="round" stroke-linejoin="round"/>
<path d="M16.8825 14.2984C17.5498 13.8292 18.0502 13.1595 18.3111 12.3866C18.572 11.6137 18.5798 10.7777 18.3334 10.0001C17.8275 8.40426 16.2792 7.53009 14.605 7.53093H13.6384C13.4076 6.63115 12.9756 5.79547 12.3751 5.08679C11.7745 4.37811 11.021 3.81491 10.1713 3.43959C9.32161 3.06427 8.39782 2.88661 7.46951 2.91998C6.5412 2.95336 5.63255 3.1969 4.81199 3.63227C3.99142 4.06765 3.28032 4.68351 2.73222 5.43348C2.18412 6.18346 1.81331 7.04801 1.6477 7.96204C1.48209 8.87606 1.526 9.81576 1.77612 10.7104C2.02624 11.605 2.47606 12.4312 3.09171 13.1268" stroke="#2F69FE" stroke-linecap="round" stroke-linejoin="round"/>
<path d="M12.6517 11.5149L10.0001 8.86328L7.34839 11.5149" stroke="#2F69FE" stroke-linecap="round" stroke-linejoin="round"/>
</svg>
