<svg width="18" height="18" viewBox="0 0 18 18" fill="none" xmlns="http://www.w3.org/2000/svg">
<path d="M9 7.5C9.79565 7.5 10.5587 7.18393 11.1213 6.62132C11.6839 6.05871 12 5.29565 12 4.5C12 3.70435 11.6839 2.94129 11.1213 2.37868C10.5587 1.81607 9.79565 1.5 9 1.5C8.20435 1.5 7.44129 1.81607 6.87868 2.37868C6.31607 2.94129 6 3.70435 6 4.5C6 5.29565 6.31607 6.05871 6.87868 6.62132C7.44129 7.18393 8.20435 7.5 9 7.5V7.5Z" stroke="#898A93" stroke-width="1.5" stroke-linecap="round" stroke-linejoin="round"/>
<path d="M15.75 16.5C15.75 15.6136 15.5754 14.7358 15.2362 13.9169C14.897 13.0979 14.3998 12.3538 13.773 11.727C13.1462 11.1002 12.4021 10.603 11.5831 10.2638C10.7642 9.92459 9.88642 9.75 9 9.75C8.11358 9.75 7.23583 9.92459 6.41689 10.2638C5.59794 10.603 4.85382 11.1002 4.22703 11.727C3.60023 12.3538 3.10303 13.0979 2.76381 13.9169C2.42459 14.7358 2.25 15.6136 2.25 16.5" stroke="#898A93" stroke-width="1.5" stroke-linecap="round" stroke-linejoin="round"/>
</svg>
